<?xml version="1.0" standalone="no"?>
<!DOCTYPE svg PUBLIC "-//W3C//DTD SVG 20010904//EN"
 "http://www.w3.org/TR/2001/REC-SVG-20010904/DTD/svg10.dtd">
<svg version="1.0" xmlns="http://www.w3.org/2000/svg"
 width="2560.000000pt" height="2560.000000pt" viewBox="0 0 2560.000000 2560.000000"
 preserveAspectRatio="xMidYMid meet">
<metadata>
Created by potrace 1.14, written by Peter Selinger 2001-2017
</metadata>
<g transform="translate(0.000000,2560.000000) scale(0.100000,-0.100000)"
fill="rgb(0,0,0)" stroke="none">
<path d="M12553 24553 c-10 -4 -13 -286 -13 -1363 0 -1074 3 -1360 13 -1368
19 -15 135 -32 223 -32 74 0 233 22 254 35 16 10 13 2708 -2 2723 -9 9 -75 12
-237 11 -125 0 -232 -3 -238 -6z"/>
<path d="M6615 23065 c-38 -25 -79 -49 -90 -55 -11 -5 -55 -32 -98 -60 -43
-27 -81 -50 -83 -50 -3 0 -18 -10 -34 -22 -35 -25 -37 -46 -11 -79 10 -13 40
-62 67 -107 27 -46 56 -94 64 -107 8 -13 30 -47 48 -76 34 -56 125 -203 142
-229 5 -8 24 -39 42 -69 18 -29 40 -63 48 -76 8 -12 33 -53 55 -89 55 -93 57
-95 90 -146 16 -25 35 -54 41 -65 6 -11 37 -60 67 -110 31 -49 78 -125 104
-168 26 -43 55 -89 63 -102 8 -13 33 -53 55 -90 62 -103 63 -106 105 -170 22
-33 61 -97 87 -142 53 -91 80 -113 116 -95 66 32 242 114 307 142 85 37 100
47 100 67 0 11 -80 153 -140 247 -8 13 -30 50 -49 82 -19 33 -38 61 -41 64 -4
3 -28 41 -54 85 -26 44 -72 118 -101 165 -30 47 -60 96 -67 110 -7 14 -26 45
-43 70 -17 25 -34 52 -38 60 -4 8 -32 53 -62 100 -29 47 -71 114 -92 149 -47
79 -52 86 -88 141 -16 25 -34 54 -40 65 -20 36 -40 69 -48 79 -10 13 -88 141
-153 251 -26 44 -53 86 -61 93 -7 7 -13 18 -13 23 0 5 -16 32 -35 59 -19 27
-35 54 -35 59 0 10 -40 42 -50 40 -3 0 -36 -20 -75 -44z"/>
<path d="M18859 23097 c-8 -7 -31 -38 -50 -71 -18 -32 -41 -68 -49 -81 -22
-34 -83 -133 -100 -163 -8 -14 -21 -32 -27 -40 -7 -7 -13 -17 -13 -22 0 -5 -6
-15 -12 -22 -7 -8 -20 -26 -28 -40 -17 -30 -78 -129 -100 -163 -8 -13 -39 -63
-68 -111 -29 -49 -71 -116 -92 -149 -42 -64 -43 -67 -105 -170 -22 -37 -48
-79 -57 -93 -10 -15 -21 -34 -25 -42 -4 -8 -21 -35 -37 -60 -38 -56 -47 -70
-87 -140 -17 -30 -35 -57 -38 -60 -4 -3 -12 -16 -19 -30 -15 -30 -27 -50 -67
-110 -35 -54 -40 -61 -84 -137 -19 -32 -38 -60 -41 -63 -4 -3 -13 -17 -21 -32
-8 -15 -27 -47 -42 -73 -34 -56 -29 -81 21 -101 44 -18 57 -24 242 -113 127
-61 147 -68 165 -57 11 7 25 22 30 32 6 10 24 39 40 64 34 52 34 51 103 167
29 48 78 126 107 173 30 47 60 94 66 105 24 44 46 82 74 125 16 25 34 52 40
62 5 9 26 42 45 73 19 32 44 72 55 91 11 18 36 58 55 89 19 31 40 64 45 73 6
10 24 37 40 62 34 52 34 51 103 167 29 48 77 126 107 173 30 47 71 114 92 149
21 35 45 74 53 86 48 74 110 184 110 196 0 14 -50 59 -65 59 -3 0 -27 15 -53
33 -70 47 -84 56 -112 69 -14 7 -45 26 -70 43 -47 31 -106 65 -112 65 -1 0
-10 -6 -19 -13z"/>
<path d="M11595 20001 c-6 -5 -174 -11 -375 -14 -201 -2 -390 -9 -420 -15 -30
-6 -98 -13 -150 -15 -52 -3 -138 -12 -190 -21 -52 -8 -129 -20 -170 -26 -91
-12 -219 -35 -280 -49 -25 -5 -66 -13 -92 -16 -26 -3 -50 -10 -53 -15 -3 -4
-29 -11 -58 -15 -28 -4 -67 -13 -86 -21 -18 -8 -42 -14 -52 -14 -10 0 -58 -12
-106 -26 -49 -15 -117 -35 -153 -46 -123 -36 -155 -47 -270 -88 -63 -23 -129
-46 -147 -51 -18 -5 -45 -16 -60 -24 -15 -8 -32 -15 -37 -15 -5 0 -30 -9 -55
-21 -74 -34 -103 -46 -161 -69 -97 -38 -345 -160 -490 -240 -41 -22 -88 -48
-105 -56 -16 -8 -42 -22 -56 -32 -15 -9 -53 -32 -85 -51 -135 -79 -401 -255
-544 -360 -106 -78 -298 -227 -310 -241 -3 -3 -30 -25 -60 -50 -30 -25 -68
-57 -85 -72 -16 -15 -42 -37 -56 -50 -160 -144 -416 -393 -510 -499 -13 -15
-53 -60 -89 -100 -36 -40 -75 -84 -87 -97 -13 -14 -23 -28 -23 -31 0 -4 -15
-22 -33 -41 -18 -19 -48 -55 -67 -80 -19 -25 -42 -54 -52 -65 -10 -11 -58 -74
-107 -140 -50 -66 -94 -125 -98 -130 -41 -53 -63 -85 -63 -93 0 -6 -3 -12 -7
-14 -8 -3 -133 -186 -133 -194 0 -2 -15 -26 -33 -52 -18 -26 -36 -54 -40 -62
-4 -8 -15 -27 -25 -42 -37 -57 -107 -179 -160 -280 -18 -35 -44 -81 -57 -103
-13 -22 -27 -47 -30 -55 -4 -8 -11 -22 -16 -30 -5 -8 -14 -26 -20 -40 -6 -14
-41 -88 -78 -165 -78 -160 -101 -210 -101 -220 0 -4 -15 -39 -33 -78 -37 -78
-54 -121 -127 -322 -12 -33 -25 -67 -29 -75 -4 -8 -20 -55 -35 -105 -16 -49
-34 -106 -41 -125 -13 -37 -44 -139 -69 -230 -9 -30 -25 -86 -36 -124 -11 -38
-20 -76 -20 -84 0 -8 -7 -35 -15 -61 -8 -25 -24 -91 -35 -146 -11 -55 -25
-118 -30 -140 -6 -22 -15 -74 -21 -115 -5 -41 -14 -88 -19 -105 -5 -16 -12
-59 -16 -95 -3 -36 -10 -81 -15 -101 -12 -48 -38 -279 -50 -449 -5 -74 -14
-188 -20 -252 -11 -121 -14 -713 -4 -758 3 -14 10 -108 15 -210 5 -102 14
-207 20 -235 5 -27 15 -104 21 -170 6 -66 13 -124 16 -128 2 -4 11 -51 19
-105 30 -208 42 -281 49 -291 3 -6 12 -46 20 -88 24 -132 44 -223 55 -243 5
-10 10 -27 10 -37 0 -10 9 -49 21 -88 11 -38 27 -95 35 -125 8 -30 22 -75 30
-100 9 -25 19 -64 24 -87 5 -23 13 -50 18 -60 13 -25 42 -111 53 -156 5 -21
13 -45 19 -55 5 -9 21 -53 35 -97 15 -44 31 -84 36 -90 5 -5 9 -16 9 -24 0 -8
8 -33 19 -55 10 -23 35 -81 56 -131 21 -49 46 -108 56 -130 35 -80 241 -492
279 -560 22 -38 43 -77 46 -85 8 -18 92 -161 114 -195 8 -13 37 -61 65 -107
27 -45 52 -85 55 -88 5 -5 67 -95 123 -180 24 -36 99 -139 199 -275 11 -15
102 -126 188 -230 153 -184 232 -270 456 -499 113 -115 352 -330 476 -429 26
-21 54 -44 62 -52 30 -30 346 -263 461 -340 66 -44 122 -82 125 -86 3 -3 31
-21 64 -40 32 -19 70 -42 85 -51 14 -10 35 -23 46 -29 38 -20 80 -45 120 -70
22 -14 63 -37 90 -51 28 -15 70 -38 95 -51 83 -47 434 -217 446 -217 3 0 20
-6 37 -14 18 -8 61 -27 97 -41 36 -14 79 -32 95 -40 17 -7 59 -23 95 -35 36
-12 74 -26 85 -31 11 -5 40 -15 65 -24 25 -8 72 -25 105 -36 33 -12 80 -27
105 -34 25 -7 70 -21 100 -30 73 -22 148 -43 245 -67 222 -55 251 -61 460 -98
33 -5 98 -17 145 -25 261 -46 595 -70 980 -70 414 0 598 12 975 65 41 6 574
12 1270 15 660 3 1234 9 1275 14 41 5 141 16 221 25 80 8 158 20 173 26 15 5
48 10 74 10 26 0 65 5 87 10 22 6 76 17 120 25 105 18 266 54 430 95 116 29
417 120 460 140 11 5 54 20 95 34 136 46 369 142 525 215 128 61 323 159 370
185 22 13 81 45 130 71 50 26 92 50 95 54 3 4 39 26 80 50 41 24 126 78 189
120 62 42 121 81 130 86 86 54 197 136 232 170 9 8 19 15 23 15 8 0 125 91
216 169 35 31 69 59 75 64 158 118 630 591 816 817 30 36 56 67 59 70 3 3 25
30 50 60 25 30 47 57 50 60 4 3 19 23 36 45 16 22 34 45 39 52 80 98 312 434
416 605 15 24 39 63 55 88 41 65 51 81 68 115 8 17 33 62 55 100 57 101 248
487 281 570 19 47 61 144 99 226 12 25 21 52 21 60 0 8 9 31 20 52 11 20 20
45 20 54 0 10 7 27 15 37 8 11 15 27 15 35 1 9 9 34 20 56 11 22 19 48 20 57
0 10 6 32 14 50 7 18 24 67 36 108 12 41 29 90 36 108 8 18 14 39 14 47 0 8 8
41 19 72 26 83 64 228 83 318 6 28 16 70 23 95 7 25 16 65 20 90 4 25 13 64
21 88 8 23 14 62 14 85 0 23 5 58 10 77 11 36 33 170 50 300 5 41 14 111 20
155 5 44 15 143 20 220 6 77 15 178 20 225 14 111 14 750 0 860 -5 47 -15 150
-20 230 -6 80 -15 181 -20 225 -6 44 -15 114 -20 155 -17 132 -39 271 -45 281
-4 5 -10 48 -15 95 -5 47 -13 91 -18 97 -5 7 -12 37 -16 67 -4 30 -13 75 -21
100 -8 25 -18 68 -23 95 -5 28 -19 84 -31 125 -12 41 -26 95 -31 120 -6 25
-13 52 -17 60 -6 15 -36 115 -53 183 -6 21 -14 45 -19 55 -12 21 -39 103 -52
157 -6 21 -14 44 -18 50 -5 5 -14 26 -19 45 -16 52 -41 121 -57 157 -8 17 -15
35 -15 41 0 9 -24 70 -55 137 -8 17 -23 53 -35 80 -38 86 -53 120 -62 135 -4
8 -11 22 -14 30 -7 21 -45 102 -55 120 -5 8 -14 26 -19 40 -20 49 -112 222
-177 335 -13 22 -30 54 -38 70 -9 17 -25 44 -35 60 -11 17 -27 44 -35 60 -9
17 -33 57 -55 90 -22 33 -43 67 -46 75 -4 8 -22 36 -41 63 -18 26 -33 49 -33
52 0 4 -81 126 -90 135 -3 3 -19 25 -35 50 -17 25 -34 50 -40 57 -17 21 -29
36 -74 98 -60 82 -182 238 -195 250 -6 6 -40 46 -76 90 -35 44 -67 82 -70 85
-3 3 -59 63 -125 135 -253 273 -520 526 -745 705 -31 25 -63 51 -71 58 -105
91 -478 353 -644 451 -49 30 -112 68 -140 85 -27 18 -75 45 -105 60 -30 16
-75 40 -100 53 -59 33 -383 195 -440 221 -25 11 -70 30 -100 42 -30 12 -62 26
-71 30 -14 7 -108 44 -189 74 -19 8 -60 23 -90 35 -31 11 -61 21 -69 21 -7 0
-25 6 -39 14 -36 19 -154 56 -178 56 -11 0 -24 4 -29 9 -10 9 -66 27 -165 51
-25 7 -61 17 -80 23 -19 5 -60 16 -90 23 -30 7 -93 23 -140 34 -78 19 -142 31
-320 60 -36 6 -103 17 -150 25 -47 8 -112 17 -145 20 -33 3 -91 11 -128 17
-176 27 -646 35 -1982 37 -807 1 -1365 -3 -1370 -8z m2973 -514 c4 -3 57 -8
117 -12 218 -14 362 -30 510 -56 33 -6 96 -17 140 -25 190 -32 353 -69 550
-125 39 -11 95 -27 125 -36 30 -8 69 -21 85 -28 17 -7 46 -16 65 -20 19 -4 40
-11 45 -15 6 -4 26 -13 45 -18 52 -16 121 -41 157 -57 17 -8 35 -15 41 -15 10
0 72 -26 170 -71 34 -16 65 -29 68 -29 16 0 310 -145 439 -216 55 -30 114 -61
130 -70 17 -8 42 -22 56 -32 15 -9 53 -32 85 -51 33 -19 61 -38 64 -41 3 -4
10 -9 15 -11 6 -2 41 -24 78 -49 62 -40 67 -45 51 -57 -11 -8 -25 -10 -34 -6
-8 5 -475 9 -1037 11 -926 2 -1023 4 -1023 18 0 9 -9 18 -20 21 -11 3 -20 12
-20 19 0 8 -6 14 -14 14 -8 0 -17 8 -20 18 -4 10 -17 19 -33 20 -15 1 -31 9
-36 17 -4 8 -15 15 -22 15 -8 0 -15 5 -15 11 0 20 -44 59 -67 59 -22 0 -73 42
-73 60 0 6 -9 10 -21 10 -12 0 -18 4 -13 11 8 14 -14 29 -44 29 -12 0 -25 7
-28 15 -4 8 -12 15 -20 15 -8 0 -14 9 -14 20 0 13 -7 20 -20 20 -11 0 -19 6
-17 13 1 7 -11 13 -32 15 -22 2 -35 10 -38 22 -3 10 -14 21 -25 23 -11 3 -17
10 -13 16 4 7 -6 11 -28 11 -26 0 -36 5 -40 20 -4 15 -14 20 -36 20 -20 0 -31
5 -31 14 0 7 -9 16 -20 19 -11 3 -20 12 -20 21 0 12 -10 16 -35 16 -24 0 -35
5 -35 15 0 15 -16 19 -52 16 -12 -2 -18 5 -18 17 0 11 -9 22 -20 25 -11 3 -19
11 -18 19 2 9 -7 12 -29 11 -24 -1 -34 3 -38 18 -4 13 -15 19 -36 19 -19 0
-29 5 -29 15 0 14 -16 20 -51 17 -9 -1 -19 7 -22 18 -4 14 -14 20 -35 20 -22
0 -31 6 -35 21 -5 18 -11 21 -35 16 -24 -5 -31 -2 -35 13 -4 14 -14 20 -35 20
-22 0 -32 6 -37 20 -5 17 -13 20 -36 16 -27 -4 -34 2 -30 27 0 4 -24 7 -54 7
-42 0 -55 3 -55 15 0 15 -10 19 -42 16 -17 -2 -58 27 -58 41 0 3 10 9 23 12
26 6 674 -1 685 -7z m-3313 -27 c9 -14 142 -13 151 2 5 8 64 9 222 4 118 -4
219 -9 224 -12 4 -3 75 -12 156 -20 131 -13 149 -17 164 -37 15 -19 20 -20 39
-9 15 10 39 12 83 7 83 -9 96 -13 96 -34 0 -16 4 -17 40 -8 32 9 56 7 132 -11
51 -12 102 -22 114 -22 11 0 24 -4 30 -9 5 -6 38 -14 73 -20 36 -6 69 -15 75
-21 6 -6 6 -10 0 -10 -5 0 -2 -4 5 -9 9 -6 22 -6 33 0 12 7 35 3 75 -11 31
-11 65 -20 75 -20 9 0 32 -7 50 -15 18 -8 52 -19 76 -25 31 -8 42 -16 42 -30
0 -21 15 -27 25 -10 9 15 35 12 80 -10 22 -11 47 -19 56 -20 9 0 22 -7 29 -15
7 -8 23 -15 37 -15 31 0 63 -17 63 -34 0 -9 9 -12 27 -8 14 3 40 -2 57 -10 61
-30 121 -56 144 -63 12 -3 22 -12 22 -20 0 -8 7 -11 19 -8 11 3 32 -2 48 -11
15 -9 39 -20 53 -26 14 -5 32 -14 40 -19 8 -5 40 -21 70 -35 54 -26 71 -35
108 -56 9 -6 34 -18 55 -27 20 -9 37 -20 37 -25 0 -4 7 -8 15 -8 9 0 28 -8 43
-18 48 -32 66 -42 95 -53 15 -6 27 -15 27 -20 0 -5 7 -9 15 -9 8 0 24 -9 35
-20 11 -11 26 -20 33 -20 18 0 37 -21 37 -42 0 -11 5 -15 15 -12 22 9 87 -25
93 -48 3 -13 11 -18 23 -15 10 3 23 -1 30 -9 6 -8 18 -14 25 -14 8 0 20 -11
26 -25 7 -16 19 -25 35 -25 12 0 23 -4 23 -9 0 -5 9 -11 21 -14 11 -3 23 -15
26 -26 3 -14 13 -21 29 -21 13 0 24 -4 24 -10 0 -5 21 -10 48 -10 46 0 50 -3
117 -70 45 -45 77 -70 92 -70 12 0 27 -9 33 -20 6 -11 21 -20 33 -20 26 0 247
-216 247 -242 0 -9 96 -113 213 -230 227 -229 277 -284 277 -305 0 -7 6 -13
14 -13 16 0 27 -58 12 -64 -6 -2 -3 -5 7 -5 10 -1 28 -12 41 -26 13 -14 30
-25 37 -25 16 0 69 -53 69 -69 0 -6 5 -11 10 -11 6 0 10 -11 10 -24 0 -18 6
-26 22 -28 16 -2 27 -16 40 -48 9 -25 17 -41 17 -37 1 14 41 -13 41 -28 0 -8
5 -15 10 -15 6 0 10 -11 10 -25 0 -18 5 -25 20 -25 12 0 24 -10 30 -24 5 -13
14 -27 19 -31 6 -3 11 -15 11 -26 0 -10 7 -19 15 -19 8 0 20 -10 26 -22 7 -13
15 -25 18 -28 16 -13 41 -61 41 -80 0 -12 7 -20 18 -20 21 0 57 -62 49 -84 -4
-11 -1 -16 12 -16 23 0 95 -112 105 -161 6 -35 30 -67 51 -68 6 -1 10 -11 10
-23 0 -14 10 -29 24 -36 19 -11 22 -19 17 -43 -3 -17 -1 -29 4 -29 6 0 15 -11
20 -25 5 -14 17 -25 26 -25 12 0 15 -7 11 -26 -4 -20 1 -27 20 -35 20 -8 24
-14 19 -34 -5 -21 -2 -27 19 -35 21 -8 24 -14 19 -35 -5 -22 -2 -27 16 -32 19
-5 21 -10 16 -44 -5 -31 -3 -39 9 -39 8 0 16 -4 16 -10 1 -5 3 -14 4 -20 1 -5
3 -14 4 -19 0 -5 10 -11 22 -14 17 -5 20 -11 14 -36 -5 -26 -3 -30 17 -33 20
-3 23 -8 20 -40 -3 -32 0 -38 15 -38 16 0 19 -7 17 -49 -1 -44 1 -49 18 -46
17 4 20 0 16 -30 -2 -19 -2 -32 0 -30 3 2 13 0 24 -6 16 -9 19 -17 13 -45 -5
-30 -3 -34 16 -34 19 0 21 -5 17 -40 -3 -36 -1 -41 20 -47 22 -5 24 -10 19
-45 -5 -35 -3 -40 20 -49 24 -9 25 -12 19 -59 -6 -41 -4 -50 9 -50 10 0 15
-10 15 -32 0 -28 19 -80 20 -54 0 5 6 3 14 -3 9 -8 12 -25 9 -55 -5 -37 -3
-44 15 -48 27 -7 39 -54 22 -81 -11 -18 -10 -23 9 -38 16 -13 21 -28 21 -63 0
-38 3 -46 18 -46 15 0 18 -6 14 -30 -7 -46 6 -98 25 -102 14 -2 16 -14 14 -64
-2 -55 0 -62 18 -67 19 -5 20 -10 15 -64 -6 -56 -5 -60 20 -77 26 -17 27 -19
20 -90 -6 -69 -5 -74 14 -80 20 -7 21 -12 15 -92 -6 -81 -5 -85 15 -91 21 -5
22 -11 22 -113 0 -96 2 -109 18 -114 16 -5 18 -21 18 -154 1 -169 2 -185 21
-178 8 4 13 -3 14 -17 0 -20 0 -1217 -1 -1278 0 -19 -5 -26 -17 -25 -20 1 -20
8 -21 -161 -2 -111 -4 -133 -17 -133 -12 0 -15 -18 -15 -99 0 -90 -2 -99 -20
-104 -18 -5 -20 -14 -20 -111 0 -86 -3 -106 -15 -106 -11 0 -15 -17 -17 -72
-2 -54 -6 -72 -16 -70 -8 1 -11 -2 -7 -8 3 -5 2 -10 -3 -10 -5 0 -10 -32 -11
-72 -1 -48 -7 -75 -16 -82 -9 -7 -15 -33 -16 -68 -2 -46 -6 -59 -21 -64 -14
-4 -18 -16 -18 -59 0 -38 -4 -54 -15 -59 -11 -4 -15 -22 -15 -71 0 -58 -2 -65
-20 -65 -17 0 -20 -7 -20 -50 0 -38 -4 -50 -15 -50 -11 0 -15 -13 -15 -54 0
-45 -3 -54 -20 -59 -16 -4 -20 -14 -20 -51 0 -34 -4 -46 -15 -46 -10 0 -15
-11 -15 -35 0 -23 -5 -35 -14 -35 -13 0 -26 -41 -26 -86 0 -15 -6 -24 -15 -24
-11 0 -15 -12 -15 -49 0 -41 -4 -51 -20 -56 -14 -4 -20 -15 -20 -36 0 -19 -5
-29 -15 -29 -14 0 -19 -16 -16 -52 1 -9 -7 -19 -19 -23 -16 -5 -20 -15 -20
-55 0 -39 -3 -49 -20 -53 -11 -3 -20 -9 -19 -14 4 -20 -2 -33 -13 -31 -9 2
-14 -13 -16 -44 -2 -34 -7 -48 -18 -48 -14 0 -18 -16 -15 -52 2 -12 -5 -18
-18 -18 -17 0 -21 -6 -21 -35 0 -23 -5 -35 -14 -35 -17 0 -28 -27 -21 -50 4
-12 -1 -19 -15 -23 -14 -3 -20 -13 -20 -31 0 -18 -12 -38 -35 -59 -24 -22 -35
-41 -35 -59 0 -16 -3 -27 -7 -27 -21 3 -29 -3 -31 -28 -1 -16 -9 -33 -17 -39
-8 -6 -15 -16 -15 -23 0 -6 -7 -11 -15 -11 -8 0 -15 -9 -15 -21 0 -28 -19 -61
-31 -54 -5 4 -9 -9 -9 -29 0 -25 -5 -36 -14 -36 -8 0 -17 -9 -21 -19 -3 -11
-12 -22 -20 -25 -9 -3 -15 -18 -15 -35 0 -20 -6 -30 -20 -34 -15 -4 -20 -14
-20 -36 0 -21 -5 -31 -15 -31 -8 0 -15 -6 -15 -14 0 -7 -8 -16 -18 -18 -11 -3
-18 -16 -20 -34 -1 -15 -9 -32 -17 -37 -8 -4 -15 -15 -15 -22 0 -8 -9 -15 -20
-15 -11 0 -20 -6 -20 -14 0 -8 -7 -16 -15 -20 -9 -3 -15 -18 -15 -36 0 -20 -5
-30 -15 -30 -9 0 -19 -8 -22 -17 -8 -21 -40 -53 -53 -53 -5 0 -12 -16 -16 -35
-3 -20 -12 -35 -20 -35 -8 0 -14 -9 -14 -20 0 -12 -7 -20 -16 -20 -9 0 -18 -9
-21 -20 -3 -11 -12 -20 -19 -20 -9 0 -14 -11 -14 -30 0 -20 -5 -30 -15 -30 -9
0 -18 -7 -22 -16 -8 -20 -81 -94 -94 -94 -5 0 -9 -4 -9 -10 0 -12 -48 -60 -60
-60 -6 0 -10 -16 -10 -35 0 -28 -4 -35 -20 -35 -13 0 -20 -7 -20 -20 0 -11 -7
-20 -15 -20 -8 0 -15 -7 -15 -15 0 -8 -9 -15 -20 -15 -13 0 -20 -7 -20 -20 0
-11 -7 -20 -15 -20 -8 0 -15 -7 -15 -15 0 -8 -9 -15 -20 -15 -13 0 -20 -7 -20
-20 0 -11 -7 -20 -15 -20 -8 0 -15 -7 -15 -15 0 -8 -9 -15 -20 -15 -11 0 -20
-7 -20 -15 0 -9 -7 -18 -15 -21 -8 -4 -15 -12 -15 -20 0 -8 -9 -14 -20 -14
-13 0 -20 -7 -20 -20 0 -11 -7 -20 -15 -20 -9 0 -18 -7 -21 -15 -4 -8 -12 -15
-20 -15 -8 0 -14 -9 -14 -20 0 -14 -7 -20 -21 -20 -12 0 -17 -4 -14 -11 4 -6
-2 -13 -14 -16 -12 -3 -21 -13 -21 -24 0 -11 -7 -19 -15 -19 -9 0 -18 -7 -21
-15 -4 -9 -19 -15 -35 -15 -22 0 -29 -5 -29 -20 0 -11 -7 -20 -15 -20 -9 0
-18 -7 -21 -15 -4 -8 -12 -15 -19 -15 -8 0 -17 -9 -20 -20 -3 -11 -13 -20 -21
-20 -8 0 -14 -7 -14 -15 0 -8 -7 -15 -16 -15 -18 0 -53 -38 -54 -57 0 -7 -6
-13 -14 -13 -8 0 -18 -9 -21 -20 -4 -13 -15 -20 -33 -20 -27 0 -72 -37 -72
-59 0 -6 -16 -11 -35 -11 -24 0 -35 -5 -35 -15 0 -8 -6 -15 -14 -15 -8 0 -18
-9 -21 -20 -3 -11 -13 -20 -21 -20 -8 0 -14 -7 -14 -15 0 -8 -9 -15 -20 -15
-11 0 -29 -9 -40 -20 -11 -11 -23 -20 -27 -20 -12 0 -53 -46 -53 -59 0 -6 -16
-11 -35 -11 -24 0 -35 -5 -35 -15 0 -9 -9 -15 -25 -15 -14 0 -30 -9 -37 -20
-7 -11 -18 -20 -25 -20 -7 0 -16 -7 -20 -15 -5 -8 -21 -16 -36 -17 -16 -1 -29
-10 -33 -20 -3 -10 -12 -18 -21 -18 -8 0 -26 -9 -40 -20 -14 -11 -32 -20 -39
-20 -8 0 -11 -6 -8 -15 5 -11 -1 -15 -25 -15 -19 0 -34 -6 -37 -15 -4 -8 -13
-15 -21 -15 -8 0 -17 -9 -20 -20 -4 -14 -14 -20 -35 -20 -20 0 -31 -6 -35 -18
-3 -14 -12 -17 -34 -14 -24 4 -31 0 -36 -17 -4 -16 -13 -21 -39 -21 -19 0 -34
-5 -34 -11 0 -6 -10 -22 -22 -35 -17 -18 -34 -24 -66 -24 -31 0 -45 -5 -50
-17 -4 -10 -13 -18 -19 -19 -7 -1 -22 -2 -33 -2 -11 -1 -20 -9 -20 -17 0 -10
-11 -15 -35 -15 -28 0 -35 -4 -35 -20 0 -13 -6 -19 -17 -18 -37 3 -53 -2 -53
-17 0 -10 -10 -15 -32 -15 -45 0 -79 -10 -72 -21 5 -9 4 -10 -35 -14 -14 -1
-30 -10 -36 -19 -7 -9 -25 -16 -40 -16 -19 0 -28 -6 -32 -20 -4 -15 -13 -20
-32 -19 -50 4 -71 -1 -71 -16 0 -11 -12 -15 -49 -15 -41 0 -51 -3 -56 -21 -5
-14 -14 -19 -33 -18 -51 4 -72 -1 -72 -16 0 -11 -12 -15 -51 -15 -42 0 -52 -3
-56 -20 -4 -17 -14 -20 -54 -20 -37 0 -49 -4 -49 -15 0 -12 -15 -15 -67 -16
-38 -1 -71 -1 -74 -1 -4 1 -5 -8 -2 -18 5 -19 0 -20 -65 -20 -53 0 -71 -4 -76
-15 -4 -11 -21 -15 -63 -15 -58 0 -88 -10 -81 -26 1 -5 -36 -10 -84 -12 -69
-2 -88 -6 -88 -17 0 -12 -22 -15 -124 -15 -132 0 -156 -4 -156 -26 0 -11 -25
-14 -125 -14 -104 0 -125 -2 -125 -15 0 -13 -63 -15 -509 -15 -443 0 -510 2
-515 15 -4 12 -30 15 -140 15 -126 0 -135 1 -141 20 -6 19 -15 20 -126 20 -99
0 -119 3 -119 15 0 12 -18 15 -105 15 -97 0 -105 1 -105 19 0 17 -8 20 -52 23
-36 2 -52 7 -51 15 2 10 -20 13 -86 13 -80 0 -89 2 -94 20 -4 17 -14 20 -57
20 -29 0 -49 4 -45 9 9 16 -16 25 -62 22 -32 -1 -43 2 -43 12 0 20 -22 27 -81
27 -35 0 -54 5 -68 19 -15 15 -28 19 -54 14 -29 -4 -37 -1 -46 16 -8 14 -21
21 -41 21 -20 0 -30 5 -30 15 0 15 -9 18 -67 18 -23 0 -34 5 -38 18 -5 15 -16
19 -56 19 -35 0 -49 4 -49 14 0 14 -45 31 -59 21 -5 -2 -11 4 -14 15 -4 14
-14 20 -32 20 -15 0 -33 7 -40 16 -7 11 -26 16 -52 16 -32 -1 -42 3 -46 19 -3
11 -14 19 -26 19 -12 0 -20 5 -19 11 3 14 -50 31 -73 24 -11 -4 -18 2 -22 15
-4 15 -13 20 -36 20 -28 0 -36 8 -32 32 0 4 -8 5 -18 3 -11 -2 -22 3 -25 11
-3 9 -10 12 -16 9 -5 -3 -10 -1 -10 4 0 6 -16 11 -35 11 -32 0 -40 7 -36 33 0
4 -8 7 -19 7 -11 0 -20 7 -20 15 0 10 -10 15 -33 15 -21 0 -36 7 -45 20 -7 11
-23 20 -36 20 -13 0 -26 7 -30 15 -3 9 -18 15 -36 15 -16 0 -30 5 -30 10 0 18
-53 59 -76 60 -13 0 -24 8 -27 20 -4 15 -14 20 -41 20 -25 0 -36 4 -36 15 0 8
-6 15 -14 15 -8 0 -18 9 -21 20 -4 11 -10 18 -15 15 -5 -3 -14 4 -20 15 -7 13
-21 20 -40 20 -17 0 -30 5 -30 11 0 20 -50 59 -76 59 -21 0 -29 9 -25 33 0 4
-8 7 -19 7 -11 0 -20 7 -20 15 0 8 -9 15 -20 15 -11 0 -20 5 -20 11 0 5 -13
15 -30 20 -16 6 -30 17 -30 25 0 8 -9 14 -20 14 -11 0 -20 7 -20 15 0 9 -11
20 -25 27 -13 6 -22 15 -19 20 3 5 0 9 -7 7 -32 -4 -47 2 -52 21 -3 11 -12 20
-21 20 -9 0 -16 7 -16 15 0 8 -7 15 -15 15 -8 0 -15 7 -15 15 0 8 -7 15 -16
15 -9 0 -18 9 -21 20 -4 15 -14 20 -39 20 -19 0 -34 5 -34 11 0 15 -42 59 -57
59 -7 0 -13 8 -13 19 0 11 -9 21 -21 24 -12 3 -18 10 -14 16 3 7 -2 11 -14 11
-12 0 -21 6 -21 13 0 20 -42 51 -75 57 -26 4 -30 9 -28 34 2 20 -3 29 -17 33
-11 3 -22 14 -25 24 -4 13 -16 19 -36 19 -24 0 -29 4 -29 25 0 23 -41 75 -60
75 -9 0 -14 14 -11 33 0 4 -5 7 -12 7 -8 0 -27 16 -43 35 -16 19 -34 35 -40
35 -7 0 -11 8 -10 18 0 10 -6 16 -16 16 -11 -1 -18 5 -18 17 0 12 -7 19 -20
19 -13 0 -18 5 -14 15 4 8 2 15 -4 15 -19 0 -99 86 -106 113 -3 15 -13 27 -21
27 -8 0 -15 9 -15 20 0 11 -7 20 -15 20 -8 0 -15 5 -15 11 0 14 -41 48 -58 49
-7 0 -17 11 -22 25 -5 14 -15 25 -21 25 -6 0 -9 9 -6 20 6 22 -38 80 -60 80
-7 0 -13 7 -13 15 0 9 -7 18 -15 21 -8 4 -15 16 -15 29 0 24 -22 49 -33 38 -4
-3 -7 3 -7 15 0 13 -6 22 -15 22 -8 0 -15 6 -15 14 0 8 -9 18 -20 21 -13 4
-20 15 -20 30 0 25 -39 75 -59 75 -6 0 -11 16 -11 35 0 24 -5 35 -15 35 -8 0
-15 7 -15 15 0 8 -9 15 -20 15 -16 0 -20 7 -20 35 0 23 -5 35 -14 35 -7 0 -16
9 -19 20 -3 11 -12 20 -21 20 -12 0 -16 10 -16 35 0 22 -5 35 -13 35 -7 0 -18
12 -25 28 -22 49 -43 82 -51 82 -5 0 -12 16 -15 35 -4 21 -13 35 -21 35 -10 0
-15 10 -15 30 0 20 -5 30 -15 30 -8 0 -15 9 -15 19 0 30 -11 51 -26 51 -8 0
-14 9 -14 20 0 14 -7 20 -21 20 -17 0 -20 4 -16 23 7 25 -1 41 -24 49 -11 4
-15 14 -12 30 3 15 -2 29 -11 37 -9 8 -16 25 -16 38 0 16 -7 27 -20 30 -15 4
-20 14 -20 38 0 25 -5 34 -21 38 -17 5 -20 11 -15 31 5 19 1 29 -14 38 -14 9
-20 24 -20 49 0 20 -6 42 -14 48 -7 6 -16 25 -20 41 -4 22 -11 30 -26 30 -18
0 -20 4 -15 34 5 25 3 36 -9 43 -10 5 -16 25 -18 55 -2 25 -5 46 -8 46 -23 -1
-30 6 -30 33 0 23 -5 32 -21 36 -17 5 -20 11 -15 45 4 29 1 43 -13 57 -10 10
-21 40 -25 66 -3 27 -12 52 -19 57 -6 4 -13 16 -13 28 -2 35 -4 38 -23 43 -17
4 -20 13 -18 61 1 39 -2 59 -12 65 -7 5 -16 30 -18 56 -3 26 -12 49 -19 52 -9
3 -14 22 -14 54 0 42 -3 49 -19 49 -26 0 -32 24 -22 88 4 28 6 53 5 53 -2 1
-10 2 -16 3 -8 1 -14 19 -16 46 -3 65 -11 90 -25 87 -8 -1 -12 13 -13 43 -4
108 -3 108 -25 113 -19 5 -20 10 -14 61 8 65 1 106 -20 106 -20 0 -25 27 -17
95 8 62 2 120 -10 117 -27 -7 -29 1 -22 77 8 100 -2 195 -21 187 -21 -8 -23
23 -18 195 6 146 4 163 -11 175 -16 11 -18 48 -19 460 -2 424 -1 448 17 468
17 19 18 33 12 172 -7 175 -2 214 26 214 18 0 19 5 14 78 -11 140 -8 172 16
191 22 18 27 67 12 133 -7 37 3 65 26 71 14 4 17 11 13 33 -12 63 -4 118 18
135 19 14 20 22 14 67 -8 62 -1 88 27 95 19 5 20 10 14 67 -5 45 -4 61 6 65 7
3 14 23 15 46 2 65 11 89 34 89 19 0 20 4 13 60 -6 57 -5 60 15 60 20 0 21 3
15 50 -6 43 -4 51 12 57 27 9 34 24 23 44 -13 25 5 65 33 72 18 5 20 9 10 19
-16 16 -15 63 1 77 8 6 17 8 20 4 8 -7 10 8 8 47 -1 14 5 39 13 55 9 17 16 41
16 53 0 16 7 26 21 29 16 5 19 11 14 30 -9 35 3 63 31 73 21 8 23 13 14 29
-13 25 -3 51 19 51 14 0 17 7 13 32 -3 21 0 35 11 43 8 6 17 27 19 46 2 27 8
35 27 37 19 3 22 8 18 30 -7 36 32 122 55 122 13 0 16 7 11 34 -4 28 -2 34 16
39 15 3 19 10 15 22 -10 25 37 112 64 119 17 5 20 10 14 24 -13 24 -4 42 20
42 15 0 19 5 15 20 -3 11 5 39 19 63 13 23 30 57 38 75 8 17 22 32 30 32 9 0
12 7 9 18 -2 10 3 24 11 31 9 8 16 20 16 27 0 8 9 23 19 33 11 11 21 27 23 38
2 10 13 19 25 21 15 2 19 8 16 21 -3 11 8 38 24 61 15 24 33 52 40 64 7 11 21
24 33 28 16 6 20 13 15 28 -3 11 -2 20 4 20 5 0 13 10 17 22 7 23 15 35 52 74
12 14 22 32 22 40 0 8 7 17 15 20 8 4 15 12 15 18 0 7 16 29 35 50 19 21 35
41 35 43 0 3 8 15 18 28 9 12 24 33 32 46 8 12 25 33 38 46 12 13 22 28 22 33
0 5 6 13 13 17 7 4 26 25 41 46 16 20 37 37 48 37 14 0 18 5 14 18 -6 17 15
45 98 135 21 23 64 70 94 105 31 34 62 62 69 62 8 0 17 8 20 17 4 10 19 30 35
45 15 15 28 32 28 37 0 5 9 13 20 16 11 3 20 10 20 15 0 13 117 130 130 130 5
0 10 7 10 15 0 8 4 15 8 15 5 0 49 39 98 86 49 47 108 100 132 117 23 17 42
34 42 39 0 4 9 8 20 8 11 0 20 7 20 15 0 7 6 18 14 22 13 8 58 44 129 105 18
15 42 28 55 28 12 0 22 6 22 14 0 12 60 66 73 66 3 0 22 16 43 35 21 19 42 35
47 35 5 0 22 10 37 23 33 27 38 30 172 117 59 39 111 70 116 70 5 0 17 9 27
20 10 11 24 20 30 20 7 0 18 7 25 15 7 8 23 15 36 15 15 0 24 6 24 15 0 9 12
18 30 22 17 3 30 9 30 14 0 4 21 19 48 32 81 41 206 109 219 119 7 6 24 8 37
6 17 -3 26 0 29 11 2 9 24 26 48 38 107 53 218 103 227 103 6 0 23 6 39 14 64
32 121 56 132 56 6 0 23 7 36 16 13 8 35 14 49 12 14 -2 31 4 38 12 7 9 47 26
88 39 41 13 86 29 100 36 42 21 90 28 105 15 12 -10 15 -9 15 4 0 17 11 23
102 51 37 12 68 15 93 11 31 -6 37 -4 42 13 4 16 17 22 57 28 28 4 57 6 64 5
7 -2 19 4 28 13 8 8 25 15 36 15 11 0 57 9 102 20 93 22 143 27 169 16 12 -6
17 -4 17 7 0 20 17 25 110 33 61 5 80 4 80 -6 0 -7 8 -2 18 10 15 19 35 23
172 37 334 32 642 43 655 23z m7085 -1582 c16 -11 27 -25 25 -29 -3 -4 8 -10
25 -14 16 -4 30 -13 30 -21 0 -8 9 -14 20 -14 11 0 23 -7 26 -15 4 -8 10 -15
15 -15 12 0 129 -119 129 -131 0 -5 6 -9 14 -9 7 0 16 -9 19 -20 3 -11 12 -20
21 -20 9 0 16 -4 16 -10 0 -5 16 -27 35 -47 60 -66 63 -71 67 -95 2 -13 9 -22
16 -20 11 2 16 -11 13 -31 0 -4 2 -6 6 -6 21 3 33 -2 33 -16 0 -8 9 -19 20
-25 11 -6 18 -15 15 -21 -4 -5 3 -9 14 -9 12 0 21 -7 21 -15 0 -9 7 -18 15
-21 8 -4 15 -12 15 -20 0 -8 9 -14 20 -14 11 0 24 -8 27 -17 4 -10 11 -21 16
-24 5 -4 11 -17 12 -30 4 -37 5 -39 13 -37 18 5 72 -34 72 -52 0 -11 5 -20 10
-20 6 0 10 -11 10 -25 0 -14 7 -28 15 -31 8 -3 17 -14 20 -25 4 -10 13 -19 21
-19 8 0 14 -5 14 -10 0 -6 12 -15 26 -20 18 -7 24 -15 20 -26 -8 -22 24 -74
46 -74 10 0 23 -11 28 -24 5 -13 13 -27 19 -30 6 -4 8 -13 5 -21 -8 -19 36
-75 58 -75 15 0 17 -6 14 -35 -3 -25 -1 -35 9 -35 8 0 18 -6 22 -13 4 -8 16
-17 27 -20 12 -5 17 -14 13 -28 -4 -15 1 -23 19 -29 13 -5 24 -16 24 -24 0 -7
7 -19 15 -26 9 -8 13 -21 9 -36 -5 -20 -2 -24 15 -24 28 0 35 -19 21 -56 -6
-16 -8 -25 -4 -21 7 7 44 -30 44 -45 0 -4 -524 -8 -1165 -8 -1155 0 -1165 0
-1165 20 0 13 -9 22 -25 26 -15 4 -25 13 -25 24 0 9 -9 27 -20 40 -11 13 -20
29 -20 35 0 7 -6 18 -14 24 -7 6 -11 22 -9 35 4 18 0 25 -17 29 -18 5 -22 11
-18 31 4 21 1 26 -14 26 -13 0 -24 11 -31 30 -6 17 -15 30 -20 30 -5 0 -6 13
-2 29 5 25 3 30 -17 33 -17 2 -24 11 -26 31 -2 16 -9 27 -18 27 -8 0 -17 8
-21 18 -3 9 -13 25 -21 34 -8 10 -12 24 -8 33 4 11 -2 19 -19 25 -14 5 -25 16
-25 23 0 8 -9 22 -19 31 -11 10 -21 32 -23 49 -2 24 -11 35 -31 45 -21 10 -27
19 -24 33 4 14 0 19 -14 19 -11 0 -24 10 -30 23 -22 48 -41 77 -50 77 -5 0 -9
9 -9 20 0 13 -10 24 -25 30 -14 5 -25 16 -25 25 0 8 -3 15 -8 15 -7 0 -35 50
-46 83 -3 9 -11 17 -19 17 -7 0 -26 18 -43 40 -16 22 -32 40 -36 40 -5 0 -8 9
-8 20 0 11 -6 23 -14 26 -8 3 -17 21 -21 40 -5 28 -12 36 -35 41 -18 3 -44 23
-67 51 -21 25 -46 54 -55 64 -10 10 -18 25 -18 33 0 8 -7 15 -15 15 -13 0 -21
31 -16 63 0 4 -2 6 -6 6 -19 -3 -33 2 -33 12 0 6 -16 25 -35 43 -19 19 -35 38
-35 45 0 8 280 11 1070 11 l1071 0 29 -22z m1600 -2163 c0 -31 5 -47 15 -51 9
-4 15 -19 15 -39 0 -24 5 -34 20 -38 15 -4 20 -14 20 -41 0 -25 4 -36 15 -36
10 0 15 -10 15 -34 0 -44 9 -66 26 -66 9 0 14 -12 14 -35 0 -24 5 -35 15 -35
11 0 15 -12 15 -45 0 -34 5 -47 20 -55 15 -8 20 -21 20 -56 0 -30 5 -46 15
-50 9 -4 15 -19 15 -35 0 -16 9 -38 20 -49 13 -13 20 -33 20 -60 0 -29 4 -40
15 -40 11 0 15 -13 16 -50 1 -27 3 -54 4 -60 1 -5 3 -14 4 -20 0 -5 8 -7 16
-4 12 5 15 -4 15 -45 0 -37 4 -53 15 -57 11 -5 15 -21 15 -60 0 -47 2 -54 20
-54 18 0 20 -7 20 -70 0 -56 3 -70 15 -70 12 0 15 -15 15 -71 0 -70 13 -115
30 -104 4 3 10 -29 12 -70 l3 -75 -1202 0 c-662 0 -1203 1 -1204 3 0 1 -6 38
-14 82 -7 44 -18 98 -24 120 -6 22 -11 54 -11 72 0 17 -6 44 -14 60 -8 15 -19
51 -25 78 -17 82 -38 168 -51 203 -7 19 -10 50 -6 73 4 24 3 38 -3 35 -16 -10
-32 20 -38 73 -3 28 -9 51 -14 51 -5 0 -13 19 -19 43 -6 23 -18 56 -26 74 -8
17 -14 43 -14 58 0 14 -7 33 -15 41 -8 9 -15 26 -15 40 0 13 -9 41 -20 61 -11
21 -20 46 -20 56 0 10 -7 29 -16 42 -11 17 -14 36 -10 55 4 22 2 30 -9 30 -17
0 -35 30 -35 58 0 11 -7 25 -15 32 -8 7 -15 20 -15 29 0 9 -9 33 -20 54 -20
37 -26 78 -13 90 3 4 539 7 1190 7 l1183 0 0 -45z m593 -2262 c0 -79 4 -143 9
-143 4 0 8 -7 8 -16 0 -8 4 -13 9 -10 11 7 25 -49 17 -62 -3 -5 -6 -216 -6
-467 -1 -410 -2 -460 -17 -470 -18 -13 -21 -43 -22 -218 l-1 -107 -1197 2
-1198 3 0 92 c0 83 2 94 23 113 19 18 21 24 11 37 -10 11 -12 126 -10 496 1
265 5 484 10 487 4 3 8 25 7 50 0 32 -6 50 -21 62 -18 15 -20 28 -20 130 0 62
-4 119 -9 126 -4 7 -5 20 -2 28 5 12 163 14 1207 12 l1202 -3 0 -142z m-93
-2022 c17 -32 1 -110 -29 -137 -24 -22 -25 -26 -13 -68 14 -53 8 -76 -20 -76
-19 0 -20 -4 -14 -64 3 -36 2 -67 -3 -70 -5 -3 -12 -23 -15 -43 -15 -88 -17
-93 -38 -93 -18 0 -20 -4 -14 -45 10 -60 0 -88 -26 -82 -19 6 -20 3 -14 -49 5
-45 3 -56 -10 -61 -10 -4 -14 -13 -10 -28 7 -28 -12 -85 -27 -82 -7 1 -11 -8
-9 -22 6 -40 -7 -71 -28 -71 -17 0 -19 -5 -14 -25 9 -38 -3 -75 -26 -75 -17 0
-19 -5 -13 -45 5 -42 4 -45 -16 -45 -20 0 -22 -4 -20 -41 3 -36 0 -43 -19 -50
-18 -7 -20 -13 -13 -31 10 -29 4 -48 -17 -48 -13 0 -17 -9 -17 -42 0 -37 -3
-43 -23 -46 -20 -3 -22 -7 -16 -38 6 -31 4 -36 -15 -41 -18 -5 -21 -11 -16
-33 5 -24 2 -30 -26 -44 -29 -14 -146 -16 -1188 -15 -636 1 -1148 3 -1138 6
15 4 18 12 15 40 -4 29 0 37 19 46 18 8 23 18 23 48 0 22 5 39 14 42 7 3 17
18 20 34 4 15 15 36 23 45 11 13 14 29 10 58 -5 37 -3 42 20 51 23 9 25 13 18
54 -6 41 -4 45 14 45 18 0 21 6 21 50 0 36 4 50 14 50 20 0 26 23 19 75 -5 41
-3 45 16 45 18 0 21 6 21 39 0 45 8 73 20 66 11 -7 22 70 14 101 -5 20 -2 26
15 31 20 5 22 11 19 67 -3 57 -2 61 20 64 23 4 24 7 20 75 -2 59 0 72 12 72
12 0 16 16 18 73 2 43 7 70 12 67 24 -15 40 98 21 147 -10 28 1 63 20 63 9 0
15 12 16 30 0 17 2 33 2 38 1 4 532 7 1181 7 1153 0 1180 0 1190 -19z m-815
-2161 c7 -12 -3 -50 -13 -49 -21 3 -31 -3 -26 -16 4 -10 0 -15 -15 -15 -17 0
-21 -6 -21 -35 0 -23 -5 -35 -14 -35 -15 0 -26 -21 -26 -51 0 -10 -7 -19 -15
-19 -8 0 -15 -9 -15 -20 0 -13 -7 -20 -19 -20 -12 0 -18 -7 -18 -22 -1 -42 -3
-48 -18 -48 -8 0 -15 -4 -15 -10 0 -12 -48 -60 -60 -60 -6 0 -10 -16 -10 -35
0 -19 -5 -35 -11 -35 -13 0 -59 -46 -59 -59 0 -5 -6 -11 -14 -14 -8 -3 -17
-19 -21 -36 -4 -17 -12 -31 -20 -31 -7 0 -15 -9 -18 -20 -3 -11 -12 -20 -21
-20 -11 0 -16 -9 -16 -30 0 -18 -6 -33 -15 -36 -8 -4 -15 -12 -15 -20 0 -8 -9
-14 -20 -14 -16 0 -20 -7 -20 -35 0 -32 -3 -35 -29 -35 -29 0 -41 -14 -41 -51
0 -10 -7 -19 -15 -19 -8 0 -15 -7 -15 -15 0 -8 -7 -15 -15 -15 -9 0 -19 -8
-22 -17 -4 -10 -12 -22 -20 -26 -7 -4 -13 -21 -13 -37 0 -18 -5 -30 -13 -30
-7 0 -21 -9 -31 -21 -11 -13 -26 -19 -40 -17 -18 4 -22 0 -24 -26 -2 -17 -9
-34 -17 -39 -8 -4 -15 -14 -15 -21 0 -8 -9 -16 -20 -19 -11 -3 -20 -13 -20
-22 0 -11 -5 -15 -15 -11 -10 3 -15 -1 -15 -13 0 -10 -9 -21 -20 -24 -11 -3
-20 -13 -20 -22 0 -9 -5 -13 -11 -10 -6 4 -13 -2 -16 -14 -3 -12 -12 -21 -20
-21 -8 0 -17 -9 -20 -20 -3 -11 -12 -20 -19 -20 -8 0 -14 -7 -14 -15 0 -8 -5
-15 -11 -15 -14 0 -59 -47 -59 -61 0 -5 -7 -9 -16 -9 -9 0 -18 -9 -21 -20 -3
-11 -12 -20 -19 -20 -8 0 -14 -7 -14 -15 0 -8 -7 -15 -16 -15 -9 0 -18 -9 -21
-20 -3 -11 -12 -20 -19 -20 -8 0 -14 -7 -14 -15 0 -10 -11 -15 -35 -15 -28 0
-35 -4 -35 -20 0 -20 -9 -20 -1040 -22 -572 -2 -1044 -2 -1049 0 -17 6 3 48
45 92 53 57 116 126 129 142 26 33 111 134 116 138 3 3 49 61 102 130 52 69
103 133 111 143 9 9 16 19 16 22 0 5 61 90 93 130 4 5 23 33 41 60 18 28 51
77 73 110 22 33 62 94 88 135 26 41 55 86 64 100 9 14 21 37 28 53 7 15 17 27
23 27 5 0 10 9 10 19 0 11 5 23 10 26 6 4 17 21 25 38 8 18 24 46 34 62 11 17
34 58 51 92 17 35 36 66 41 69 6 3 14 17 19 30 l10 24 1144 0 c759 0 1147 -3
1151 -10z m-2065 -2154 c0 -16 -15 -36 -26 -36 -8 0 -17 -6 -20 -14 -3 -8 -21
-17 -40 -20 -20 -4 -34 -13 -34 -21 0 -9 -10 -15 -25 -15 -13 0 -28 -6 -32
-13 -4 -8 -16 -16 -25 -20 -10 -3 -18 -13 -18 -22 0 -10 -10 -15 -30 -15 -16
0 -33 -7 -38 -16 -5 -9 -20 -18 -33 -19 -38 -4 -39 -4 -39 -20 0 -8 -9 -15
-20 -15 -11 0 -20 -6 -20 -14 0 -8 -15 -17 -35 -20 -21 -4 -35 -13 -35 -21 0
-10 -11 -15 -35 -15 -28 0 -35 -4 -35 -19 0 -15 -6 -18 -31 -16 -24 2 -33 -2
-36 -16 -4 -14 -14 -19 -39 -19 -27 0 -34 -4 -34 -19 0 -15 -6 -18 -31 -15
-24 3 -32 0 -36 -16 -4 -14 -14 -20 -35 -20 -21 0 -31 -6 -35 -20 -5 -17 -12
-19 -50 -16 -38 3 -46 0 -50 -15 -4 -14 -14 -19 -38 -19 -25 0 -35 -5 -40 -21
-5 -13 -12 -18 -22 -14 -22 8 -53 -4 -53 -21 0 -10 -13 -14 -46 -14 -36 0 -47
-4 -51 -18 -3 -13 -14 -17 -45 -16 -28 1 -46 -5 -57 -18 -8 -10 -28 -18 -44
-18 -21 0 -30 -6 -34 -20 -4 -15 -13 -20 -32 -19 -50 4 -71 -1 -71 -16 0 -12
-14 -15 -66 -15 -57 0 -67 -3 -71 -20 -4 -17 -12 -19 -54 -17 -40 3 -50 0 -55
-15 -4 -15 -16 -18 -75 -18 -62 0 -69 -2 -69 -20 0 -18 -7 -20 -77 -21 -43 -1
-81 -1 -85 0 -5 0 -7 -5 -5 -12 1 -8 -16 -13 -55 -15 -50 -3 -58 -6 -58 -22 0
-19 -8 -20 -105 -20 -87 0 -105 -3 -105 -15 0 -12 -20 -15 -112 -16 -62 -1
-121 -1 -130 0 -9 1 -23 -7 -30 -18 -12 -20 -22 -21 -170 -21 -131 0 -158 -2
-158 -14 0 -12 -43 -15 -267 -18 -148 -2 -269 -2 -271 -1 -2 1 1 10 7 21 6 11
36 32 68 47 117 55 279 141 388 206 17 10 53 30 80 44 28 15 57 33 66 41 8 8
19 14 23 14 4 0 19 8 34 19 85 59 268 176 292 187 8 4 23 14 32 23 9 9 51 41
93 71 102 74 308 231 320 245 25 28 112 93 130 98 24 6 1935 9 1935 3z"/>
<path d="M11082 17541 c-18 -3 -33 -10 -32 -16 0 -6 -67 -12 -172 -15 -124 -4
-173 -8 -176 -17 -2 -9 -30 -13 -92 -13 -97 0 -120 -5 -120 -26 0 -11 -19 -14
-85 -14 -67 0 -87 -3 -91 -15 -5 -11 -22 -15 -65 -15 -48 0 -61 -4 -71 -20
-11 -17 -24 -20 -76 -20 -36 0 -61 -4 -57 -9 8 -14 -6 -20 -59 -22 -34 -2 -50
-8 -57 -21 -7 -13 -21 -18 -49 -18 -21 0 -45 -7 -54 -15 -8 -8 -27 -15 -41
-15 -18 0 -29 -6 -32 -20 -4 -17 -14 -20 -54 -20 -37 0 -49 -4 -49 -15 0 -10
-10 -15 -30 -15 -19 0 -34 -7 -42 -20 -9 -14 -24 -20 -50 -20 -21 0 -38 -4
-38 -9 0 -5 -13 -14 -30 -21 -16 -7 -30 -19 -30 -26 0 -10 -13 -14 -44 -14
-30 0 -46 -5 -50 -15 -3 -8 -15 -15 -26 -15 -11 0 -29 -9 -40 -20 -11 -11 -25
-20 -30 -20 -6 0 -13 -7 -16 -15 -4 -9 -19 -15 -36 -15 -21 0 -31 -6 -35 -20
-4 -15 -14 -20 -38 -20 -23 0 -34 -5 -37 -18 -4 -15 -12 -18 -36 -14 -27 4
-30 2 -25 -17 4 -16 1 -21 -16 -21 -14 0 -21 -6 -21 -20 0 -17 -5 -20 -35 -16
-29 4 -35 1 -35 -15 0 -12 -7 -19 -20 -19 -11 0 -20 -6 -20 -14 0 -15 -21 -26
-51 -26 -10 0 -19 -7 -19 -15 0 -8 -4 -15 -9 -15 -5 0 -13 -9 -16 -21 -5 -15
-13 -20 -30 -17 -14 3 -26 -2 -34 -14 -6 -10 -19 -18 -29 -18 -10 0 -25 -16
-36 -40 -12 -24 -26 -40 -37 -40 -9 0 -19 -5 -21 -11 -2 -7 -18 -12 -36 -13
-22 -1 -32 -6 -32 -17 0 -9 -9 -19 -21 -22 -12 -3 -18 -10 -14 -17 4 -7 -2
-14 -14 -17 -12 -3 -21 -12 -21 -19 0 -8 -7 -14 -15 -14 -9 0 -15 -9 -15 -21
0 -18 -5 -21 -30 -17 -16 3 -28 3 -26 0 9 -8 -33 -44 -43 -37 -7 3 -11 3 -10
-2 4 -23 -2 -35 -16 -29 -10 4 -15 -1 -15 -14 0 -13 -7 -20 -20 -20 -13 0 -20
-7 -20 -20 0 -11 -7 -20 -15 -20 -9 0 -18 -7 -21 -15 -4 -8 -12 -15 -20 -15
-8 0 -14 -9 -14 -20 0 -11 -3 -19 -7 -18 -10 3 -63 -50 -63 -62 0 -6 -7 -10
-15 -10 -9 0 -18 -7 -21 -15 -4 -8 -12 -15 -20 -15 -8 0 -14 -7 -14 -15 0 -9
-15 -30 -32 -47 -18 -18 -34 -36 -34 -40 -1 -4 -2 -17 -3 -28 -1 -13 -8 -20
-21 -20 -11 0 -20 -7 -20 -15 0 -8 -7 -15 -15 -15 -8 0 -15 -7 -15 -15 0 -8
-7 -15 -15 -15 -9 0 -19 -8 -22 -17 -4 -10 -12 -22 -20 -26 -7 -4 -13 -13 -13
-20 0 -7 -8 -17 -19 -24 -13 -8 -17 -19 -14 -37 4 -21 2 -26 -16 -26 -12 0
-21 -6 -21 -15 0 -8 -6 -15 -13 -15 -8 0 -19 -11 -25 -25 -6 -14 -16 -25 -22
-25 -5 0 -10 -11 -10 -24 0 -16 -7 -27 -20 -31 -11 -3 -20 -12 -20 -20 0 -7
-7 -15 -15 -19 -9 -3 -15 -19 -15 -41 0 -28 -4 -35 -20 -35 -11 0 -20 -7 -20
-15 0 -8 -6 -14 -12 -12 -8 1 -14 -11 -16 -32 -2 -23 -9 -35 -23 -38 -10 -3
-19 -10 -19 -16 0 -5 -7 -15 -15 -21 -8 -6 -16 -23 -17 -38 -2 -20 -8 -28 -21
-28 -15 0 -18 -6 -15 -37 2 -30 0 -38 -14 -37 -10 1 -18 -9 -22 -27 -3 -16
-11 -28 -18 -27 -8 2 -14 -9 -16 -24 -2 -16 -9 -28 -18 -28 -8 0 -14 -10 -14
-25 0 -14 -9 -33 -20 -42 -11 -10 -20 -30 -20 -45 0 -18 -5 -28 -15 -28 -8 0
-17 -14 -21 -34 -3 -19 -12 -37 -20 -40 -8 -3 -14 -19 -14 -36 0 -26 -8 -34
-31 -32 -3 1 -5 -22 -5 -51 1 -40 -2 -52 -14 -52 -10 0 -16 -12 -18 -32 -3
-30 -11 -38 -34 -34 -5 0 -8 -22 -8 -49 0 -36 -4 -52 -15 -56 -11 -5 -14 -18
-13 -48 3 -35 0 -41 -18 -44 -19 -3 -21 -9 -18 -47 2 -36 -1 -44 -18 -48 -17
-5 -19 -13 -17 -53 3 -40 0 -48 -18 -55 -18 -6 -20 -14 -16 -58 3 -46 2 -51
-16 -51 -18 0 -20 -8 -23 -62 -2 -48 -7 -63 -18 -63 -12 0 -16 -16 -18 -70 -3
-49 -8 -73 -19 -78 -11 -7 -13 -21 -8 -70 6 -58 5 -64 -19 -90 -20 -21 -26
-39 -26 -70 0 -23 4 -48 9 -55 13 -21 0 -64 -20 -69 -17 -5 -19 -17 -19 -134
0 -103 -3 -129 -14 -129 -19 0 -23 -22 -19 -130 10 -310 12 -735 3 -744 -22
-22 -8 -166 16 -166 17 0 17 -4 14 -152 -2 -103 0 -118 14 -118 25 0 40 -49
27 -86 -6 -17 -11 -47 -11 -67 0 -30 4 -37 19 -37 29 0 34 -27 28 -135 -1 -28
2 -39 11 -37 16 3 35 -46 27 -67 -18 -45 -16 -61 11 -71 26 -10 26 -12 20 -70
-6 -50 -4 -60 8 -60 22 0 39 -37 34 -76 -3 -25 0 -34 15 -38 16 -4 17 -11 11
-55 -6 -47 -5 -51 15 -51 14 0 22 -8 26 -27 4 -16 15 -46 26 -69 10 -23 19
-48 19 -56 0 -8 7 -23 15 -34 8 -10 15 -33 15 -50 0 -19 6 -34 16 -38 10 -4
14 -16 12 -38 -2 -25 2 -36 16 -43 11 -5 24 -25 29 -44 4 -18 15 -40 23 -48 8
-8 14 -25 14 -38 0 -12 7 -25 15 -29 8 -3 15 -14 15 -24 0 -11 9 -31 20 -45
11 -14 20 -34 20 -45 0 -11 7 -22 15 -26 8 -3 15 -14 15 -25 0 -11 7 -26 15
-35 8 -8 20 -25 25 -38 6 -13 22 -43 35 -67 14 -24 25 -55 25 -68 0 -14 6 -23
15 -23 8 0 21 -12 30 -27 9 -16 24 -41 35 -58 11 -16 23 -37 27 -45 3 -8 21
-33 38 -55 49 -62 67 -95 61 -111 -3 -9 4 -16 19 -20 14 -3 25 -9 25 -14 0 -4
11 -20 25 -36 14 -16 29 -42 32 -57 3 -16 13 -31 22 -34 17 -6 60 -53 61 -65
0 -4 10 -18 23 -31 30 -32 87 -98 87 -102 0 -6 65 -78 98 -108 17 -17 32 -34
32 -39 0 -10 134 -143 235 -233 37 -33 85 -76 106 -95 42 -39 43 -40 187 -152
56 -45 102 -84 102 -88 0 -4 8 -10 18 -14 9 -3 29 -14 43 -23 15 -10 41 -27
58 -38 17 -10 31 -23 31 -27 0 -4 4 -8 9 -8 14 0 91 -52 91 -62 0 -4 6 -8 13
-8 7 0 35 -15 63 -32 28 -18 59 -38 70 -45 21 -14 90 -50 204 -109 41 -22 77
-42 78 -46 2 -5 8 -8 13 -8 9 0 147 -62 212 -95 16 -8 34 -15 40 -15 7 0 29
-9 50 -20 20 -11 46 -20 56 -20 11 0 23 -4 26 -10 3 -5 25 -14 48 -20 23 -6
51 -15 62 -20 29 -13 134 -47 175 -55 19 -4 41 -11 50 -16 8 -5 44 -16 80 -24
36 -9 92 -23 125 -31 113 -27 260 -55 365 -69 58 -8 143 -19 190 -26 111 -16
734 -16 850 0 47 6 132 17 190 25 58 8 125 19 150 25 25 5 70 15 100 20 87 15
189 39 265 61 39 12 93 27 121 34 28 7 60 18 72 25 11 6 29 11 39 11 10 1 36
9 58 20 22 11 47 19 56 20 9 0 38 9 65 21 27 11 63 26 79 33 17 7 57 24 90 37
91 36 373 181 508 261 108 64 334 212 347 227 3 4 17 14 31 23 28 18 161 123
220 173 253 216 471 440 644 660 44 55 83 105 87 110 36 45 116 154 119 161
11 26 93 144 101 144 4 0 8 7 8 15 0 8 15 37 33 63 18 26 36 54 40 62 4 8 25
47 47 85 22 39 53 97 70 130 17 33 35 67 40 75 5 8 21 42 36 75 15 33 31 61
36 63 4 2 8 11 8 20 0 10 8 33 18 52 11 19 22 47 26 63 3 15 11 27 16 27 6 0
10 10 10 21 0 12 8 40 19 63 37 82 51 117 51 129 0 7 9 29 20 50 11 20 20 46
20 56 0 30 11 51 25 51 9 0 14 13 13 40 0 22 6 54 15 72 8 18 18 52 22 75 4
28 13 44 25 48 15 5 17 13 13 40 -7 44 3 85 22 85 22 0 28 20 14 46 -10 20
-10 35 0 77 7 29 17 81 22 117 17 103 19 110 32 107 6 -1 10 5 8 13 -5 18 -4
35 4 128 5 55 12 78 27 92 19 18 20 26 13 130 -7 114 2 303 14 296 4 -3 13 -1
21 5 10 6 11 9 3 9 -9 0 -10 7 -4 23 10 27 9 317 -2 334 -4 6 -1 14 5 16 7 3
4 6 -8 6 -19 1 -22 9 -27 80 -3 43 -3 140 0 215 5 120 4 136 -10 136 -19 0
-24 15 -33 93 -4 36 -2 62 5 71 6 7 10 25 9 40 -2 23 -10 30 -30 27 -16 -2
-26 118 -13 157 6 19 3 24 -15 29 -20 5 -21 10 -15 64 8 64 1 99 -20 99 -20 0
-27 33 -19 85 5 38 4 45 -10 45 -26 0 -42 46 -28 82 10 27 9 31 -8 35 -17 4
-20 14 -20 59 0 41 -4 54 -15 54 -24 0 -37 35 -24 67 14 37 14 37 -13 43 -19
5 -23 13 -24 45 0 30 -5 41 -18 43 -15 3 -17 11 -11 47 5 40 4 44 -17 47 -19
2 -23 9 -23 38 0 26 -6 38 -22 48 -19 10 -21 16 -12 39 9 25 6 37 -12 39 -5 1
-13 2 -17 3 -4 0 -6 17 -4 36 4 29 1 35 -15 35 -16 0 -18 6 -15 35 4 33 -2 40
-30 36 -12 -1 -27 35 -26 60 3 42 -13 79 -33 79 -15 0 -19 7 -19 35 0 29 -4
35 -21 35 -17 0 -20 5 -17 25 5 23 -15 53 -31 48 -3 -1 -5 9 -4 21 1 16 -6 27
-24 35 -20 9 -24 16 -19 36 5 20 3 25 -12 25 -18 0 -52 60 -52 93 0 10 -7 17
-15 17 -9 0 -21 11 -27 25 -6 14 -16 25 -21 25 -5 0 -7 11 -5 25 6 28 -30 75
-57 75 -11 0 -15 10 -15 35 0 22 -6 38 -15 41 -8 4 -15 15 -15 25 0 10 -3 18
-7 18 -21 -3 -33 2 -33 16 0 8 -7 15 -15 15 -9 0 -15 10 -15 26 0 28 -68 104
-94 104 -16 0 -41 43 -51 90 -4 17 -11 27 -16 24 -6 -3 -13 3 -16 15 -3 12
-12 21 -19 21 -13 0 -18 12 -15 33 0 4 -6 7 -14 7 -16 0 -65 46 -65 61 0 5 -7
9 -15 9 -8 0 -15 5 -15 10 0 6 -7 10 -15 10 -13 0 -65 44 -65 55 0 7 -124 125
-130 125 -4 0 -12 16 -20 35 -7 19 -22 37 -32 41 -10 3 -18 12 -18 20 0 8 -4
14 -10 14 -5 0 -25 16 -44 35 -21 21 -45 35 -60 35 -13 0 -26 7 -30 15 -3 8
-11 15 -18 15 -7 0 -23 18 -36 40 -12 22 -29 40 -37 40 -8 0 -15 7 -15 15 0
10 -11 15 -35 15 -28 0 -35 4 -35 20 0 11 -7 20 -15 20 -8 0 -15 6 -15 14 0 8
-9 18 -21 21 -13 4 -18 12 -15 22 5 12 -1 14 -34 8 -36 -6 -41 -4 -49 18 -15
39 -40 58 -67 51 -19 -5 -26 -1 -34 20 -5 14 -15 26 -21 26 -6 0 -9 6 -6 14 3
7 0 13 -6 13 -46 -1 -67 5 -67 18 0 14 -18 20 -48 16 -8 -1 -16 7 -19 18 -3
12 -12 21 -19 21 -8 0 -17 6 -20 14 -3 8 -18 18 -34 21 -16 3 -34 13 -40 20
-8 9 -22 12 -41 8 -24 -4 -30 -1 -38 20 -8 19 -15 23 -34 20 -19 -4 -27 0 -32
16 -4 14 -15 21 -31 21 -14 0 -24 6 -24 14 0 19 -18 24 -57 18 -29 -4 -33 -2
-33 17 0 17 -6 21 -31 21 -22 0 -30 4 -26 13 3 8 0 14 -6 15 -73 11 -93 17
-100 28 -4 8 -21 14 -37 14 -20 0 -31 6 -35 19 -5 15 -17 21 -53 23 -31 2 -46
7 -44 16 1 8 -14 12 -52 12 -46 0 -54 3 -59 21 -5 19 -12 20 -64 17 -46 -2
-58 0 -58 12 0 11 -15 16 -50 20 -37 4 -50 9 -49 20 1 12 -13 16 -64 18 -68 3
-86 8 -78 21 3 4 -34 8 -82 10 -72 2 -88 6 -100 22 -11 16 -26 19 -103 19 -70
0 -91 3 -95 15 -5 13 -35 15 -179 15 -171 0 -173 0 -179 23 -5 18 -8 20 -16 7
-5 -8 -10 -10 -10 -4 0 12 -385 16 -448 5z m538 -551 c25 -5 88 -11 140 -15
52 -3 129 -13 170 -21 266 -54 358 -76 438 -105 30 -10 61 -19 70 -19 15 0 83
-24 159 -56 17 -8 35 -14 41 -14 9 0 63 -22 139 -56 17 -8 35 -14 39 -14 8 0
287 -138 324 -160 8 -5 49 -28 90 -51 121 -68 322 -205 448 -304 16 -13 19
-15 127 -105 126 -104 404 -386 500 -505 43 -55 82 -102 85 -105 9 -7 140
-187 171 -235 86 -130 183 -291 203 -335 3 -8 15 -28 26 -45 11 -16 24 -41 30
-55 5 -14 15 -32 20 -40 6 -8 15 -26 20 -40 6 -14 25 -54 41 -90 63 -134 69
-148 69 -162 0 -9 7 -21 15 -28 8 -7 15 -22 15 -34 0 -12 6 -31 14 -42 8 -11
18 -38 22 -59 4 -22 13 -46 21 -53 7 -7 13 -23 13 -34 0 -11 6 -34 14 -51 25
-57 56 -163 56 -190 0 -14 -5 -29 -11 -33 -7 -4 -2 -11 12 -18 25 -12 44 -74
35 -110 -3 -11 2 -24 10 -30 20 -15 39 -134 23 -152 -9 -11 -8 -14 5 -14 8 0
18 -10 20 -22 12 -60 13 -83 4 -104 -13 -27 -3 -74 16 -74 8 0 16 -17 20 -46
9 -65 8 -164 -2 -164 -4 0 -7 -22 -7 -50 1 -37 6 -53 20 -64 19 -14 20 -30 23
-308 4 -322 0 -374 -26 -380 -15 -4 -17 -16 -14 -84 9 -214 9 -214 -17 -233
-23 -18 -24 -22 -17 -106 6 -81 5 -87 -13 -92 -24 -6 -37 -67 -22 -105 13 -34
4 -65 -21 -71 -18 -5 -20 -11 -14 -59 7 -56 2 -70 -27 -81 -16 -6 -18 -14 -12
-62 7 -52 6 -55 -15 -55 -21 0 -22 -3 -16 -50 6 -43 4 -51 -11 -57 -24 -9 -33
-23 -33 -51 0 -13 -7 -30 -15 -38 -8 -9 -15 -32 -15 -52 0 -25 -7 -43 -20 -55
-11 -9 -20 -28 -20 -41 0 -14 -7 -29 -16 -34 -9 -5 -15 -12 -15 -15 1 -4 1
-24 1 -46 0 -30 -4 -40 -20 -44 -14 -3 -20 -14 -20 -31 0 -17 -5 -26 -16 -26
-13 0 -15 -7 -9 -40 6 -36 5 -41 -19 -50 -16 -6 -26 -17 -26 -29 0 -10 -7 -21
-15 -25 -9 -3 -15 -18 -15 -36 0 -19 -5 -30 -14 -30 -15 0 -26 -21 -26 -51 0
-11 -7 -22 -15 -25 -9 -4 -15 -19 -15 -35 0 -26 -9 -34 -32 -30 -5 0 -8 -15
-8 -34 0 -24 -5 -35 -15 -35 -8 0 -15 -9 -15 -20 0 -11 -6 -20 -14 -20 -15 0
-26 -21 -26 -51 0 -10 -7 -19 -15 -19 -10 0 -15 -11 -15 -35 0 -28 -4 -35 -20
-35 -11 0 -20 -7 -20 -15 0 -8 -5 -15 -10 -15 -6 0 -14 -8 -17 -17 -4 -9 -15
-25 -25 -35 -10 -10 -18 -27 -18 -38 0 -11 -7 -20 -15 -20 -8 0 -15 -6 -15
-14 0 -7 -9 -16 -20 -19 -15 -4 -20 -14 -20 -36 0 -21 -5 -31 -15 -31 -8 0
-15 -9 -15 -20 0 -11 -7 -20 -15 -20 -8 0 -19 -9 -25 -20 -6 -11 -15 -18 -21
-15 -5 4 -9 -3 -9 -14 0 -14 -6 -21 -20 -21 -16 0 -20 -7 -20 -35 0 -19 -4
-35 -9 -35 -14 0 -61 -45 -61 -59 0 -6 -7 -11 -15 -11 -8 0 -15 -7 -15 -15 0
-14 -12 -19 -32 -16 -5 0 -8 -8 -8 -19 0 -11 -4 -20 -10 -20 -18 0 -59 -50
-62 -77 -2 -17 -8 -27 -17 -25 -22 5 -51 -9 -51 -24 0 -8 -6 -14 -14 -14 -15
0 -26 -21 -26 -51 0 -15 -7 -19 -35 -19 -29 0 -35 -4 -35 -21 0 -12 -4 -17
-11 -14 -6 4 -13 -2 -16 -14 -3 -12 -11 -21 -18 -21 -8 0 -17 -9 -20 -20 -4
-11 -11 -18 -16 -14 -6 3 -13 -3 -16 -15 -3 -11 -14 -23 -24 -26 -10 -4 -19
-12 -19 -18 0 -7 -12 -14 -27 -15 -16 -1 -33 -9 -39 -17 -6 -8 -16 -15 -23
-15 -6 0 -11 -9 -11 -20 0 -13 -7 -20 -20 -20 -11 0 -20 -6 -20 -14 0 -8 -7
-16 -15 -20 -8 -3 -15 -13 -15 -22 0 -13 -8 -15 -35 -12 -29 3 -35 1 -35 -14
0 -10 -6 -18 -14 -18 -8 0 -18 -9 -21 -20 -3 -11 -13 -20 -21 -20 -8 0 -14 -7
-14 -15 0 -10 -10 -15 -31 -15 -23 0 -32 -5 -36 -21 -5 -17 -12 -20 -36 -16
-23 3 -31 0 -35 -15 -2 -10 -10 -18 -17 -18 -8 0 -17 -9 -20 -20 -5 -15 -15
-20 -41 -20 -24 0 -34 -5 -34 -15 0 -10 -10 -15 -31 -15 -22 0 -32 -5 -36 -20
-4 -15 -14 -20 -39 -20 -24 0 -34 -5 -34 -15 0 -10 -10 -15 -31 -15 -22 0 -32
-5 -36 -20 -4 -14 -14 -20 -34 -20 -17 0 -32 -6 -35 -15 -4 -9 -19 -15 -40
-15 -27 0 -34 -4 -34 -20 0 -16 -7 -20 -35 -20 -24 0 -35 -5 -35 -15 0 -11
-12 -15 -45 -15 -34 0 -48 -5 -57 -20 -8 -12 -24 -20 -39 -20 -15 0 -29 -7
-33 -15 -4 -10 -20 -15 -52 -15 -37 0 -47 -4 -51 -20 -5 -17 -14 -20 -59 -20
-41 0 -54 -4 -54 -15 0 -11 -12 -15 -46 -15 -37 0 -47 -4 -51 -20 -5 -18 -14
-20 -89 -20 -66 0 -86 -3 -90 -15 -5 -11 -23 -15 -74 -15 -77 0 -100 -6 -100
-26 0 -11 -19 -14 -85 -14 -67 0 -87 -3 -91 -15 -9 -23 -924 -23 -924 0 0 12
-16 15 -84 15 -75 0 -84 2 -89 20 -5 18 -14 20 -105 20 -80 0 -101 3 -106 15
-4 11 -22 15 -71 15 -62 0 -71 4 -66 33 0 4 -2 6 -6 6 -5 -1 -29 -1 -55 0 -36
1 -48 5 -48 16 0 11 -12 15 -48 15 -36 0 -50 5 -60 20 -9 15 -23 20 -57 20
-33 0 -45 4 -45 15 0 10 -10 15 -34 15 -25 0 -35 5 -39 19 -4 16 -15 20 -53
23 -33 2 -48 7 -46 16 1 8 -14 12 -53 12 -34 0 -55 4 -55 11 0 20 -50 59 -74
59 -15 0 -26 7 -29 20 -4 17 -14 20 -56 20 -39 0 -51 4 -51 15 0 8 -9 15 -20
15 -11 0 -19 3 -19 8 4 23 -4 32 -30 32 -16 0 -31 6 -35 15 -3 9 -19 15 -41
15 -28 0 -35 4 -35 20 0 11 -7 20 -15 20 -8 0 -15 7 -15 15 0 10 -10 15 -34
15 -25 0 -35 5 -39 20 -4 15 -14 20 -36 20 -21 0 -31 5 -31 15 0 8 -9 15 -20
15 -13 0 -20 7 -20 20 0 11 -7 20 -15 20 -8 0 -15 7 -15 15 0 10 -11 15 -35
15 -25 0 -35 4 -35 16 0 9 -9 18 -20 21 -11 3 -20 12 -20 19 0 8 -6 14 -14 14
-8 0 -18 9 -21 20 -4 14 -15 20 -36 20 -22 0 -29 5 -29 19 0 14 -5 18 -20 14
-15 -4 -20 0 -20 16 0 12 -6 21 -15 21 -8 0 -15 7 -15 15 0 14 -12 19 -32 16
-5 0 -8 8 -8 19 0 11 -4 20 -9 20 -14 0 -61 45 -61 59 0 6 -16 11 -35 11 -33
0 -35 2 -35 35 0 33 -2 35 -35 35 -23 0 -35 5 -35 14 0 8 -7 16 -15 20 -9 3
-15 18 -15 35 0 21 -6 32 -20 36 -11 3 -20 12 -20 20 0 7 -9 15 -20 18 -11 3
-19 11 -18 19 2 7 -3 12 -10 10 -8 -1 -16 7 -19 18 -3 11 -14 20 -24 20 -11 0
-18 3 -18 8 3 20 -2 32 -16 32 -8 0 -15 7 -15 15 0 8 -7 15 -15 15 -10 0 -15
11 -15 35 0 33 -2 35 -35 35 -33 0 -35 2 -35 35 0 28 -4 35 -20 35 -14 0 -20
7 -20 21 0 11 -5 17 -10 14 -12 -7 -25 22 -29 68 -1 4 -5 7 -11 7 -25 0 -55
46 -59 93 -1 4 -8 7 -16 7 -8 0 -15 6 -15 14 0 8 -9 18 -20 21 -11 3 -20 13
-20 21 0 8 -7 14 -15 14 -10 0 -15 11 -15 35 0 29 -4 35 -21 35 -15 0 -20 6
-19 23 3 38 1 47 -15 47 -8 0 -15 6 -15 14 0 8 -9 18 -20 21 -15 5 -20 15 -20
41 0 24 -5 34 -15 34 -10 0 -15 10 -15 31 0 22 -5 32 -20 36 -15 4 -20 14 -20
39 0 24 -5 34 -15 34 -10 0 -15 10 -15 31 0 22 -5 32 -20 36 -11 3 -20 12 -20
19 0 8 -7 17 -15 20 -10 4 -15 20 -15 51 0 36 -4 46 -20 50 -16 4 -20 14 -20
53 0 33 -5 50 -15 54 -9 3 -15 18 -15 37 0 22 -5 32 -20 36 -14 4 -20 14 -20
34 0 15 -6 32 -14 36 -10 6 -15 29 -17 76 -2 58 -5 67 -21 67 -14 0 -18 8 -18
35 0 24 -5 35 -15 35 -11 0 -15 12 -15 48 0 61 -9 92 -26 92 -11 0 -14 16 -14
64 0 48 -4 65 -15 70 -10 4 -15 20 -15 52 0 37 -4 47 -20 51 -18 5 -20 14 -20
103 0 78 -3 99 -15 104 -12 4 -15 26 -15 103 0 95 -8 128 -26 121 -5 -1 -10
68 -12 155 -2 130 -5 157 -17 157 -13 0 -15 32 -15 214 0 186 2 215 16 220 14
5 15 29 12 191 l-3 185 24 16 c23 17 24 20 18 117 -5 92 -4 100 14 104 17 5
19 15 19 79 0 55 4 76 14 80 20 8 27 44 15 79 -14 40 3 88 27 78 15 -5 16 0
10 48 -8 60 -1 89 19 89 18 0 24 22 18 68 -5 35 -2 41 16 47 19 6 21 13 19 53
-3 42 0 47 18 50 20 3 21 8 17 48 -4 40 -2 46 17 51 18 5 21 12 18 47 -2 36 0
41 20 44 23 4 28 18 13 41 -11 18 4 51 22 51 9 0 12 11 9 35 -4 30 -1 36 23
45 22 8 26 15 21 34 -6 25 32 110 48 106 13 -3 28 28 21 40 -7 12 32 100 45
100 4 0 10 14 14 30 4 20 11 30 24 30 15 0 18 6 14 29 -3 24 0 29 21 35 19 4
24 11 20 25 -3 12 6 37 24 63 16 24 32 51 36 61 4 11 16 21 27 24 13 3 20 14
20 29 0 13 5 24 10 24 6 0 10 6 10 13 0 8 9 24 20 37 11 13 20 29 20 36 0 7 9
16 20 19 11 3 20 13 20 21 0 8 5 20 10 27 6 7 47 60 92 120 46 59 90 107 99
107 10 0 19 11 22 28 6 30 261 295 387 403 41 35 77 66 80 69 3 3 30 25 60 50
30 25 57 47 60 50 7 8 107 81 167 123 29 20 57 37 63 37 5 0 10 4 10 10 0 5
12 16 28 25 15 9 41 24 57 35 17 11 41 25 55 32 14 7 27 15 30 19 12 15 427
229 445 229 4 0 21 6 38 14 76 34 130 56 139 56 6 0 24 6 41 14 18 8 70 27
117 41 47 15 94 31 105 35 43 16 194 52 425 100 223 46 808 71 970 40z"/>
<path d="M9295 14670 c-92 -14 -159 -47 -210 -101 -52 -56 -67 -86 -89 -183
-14 -60 -16 -238 -15 -1574 0 -1610 0 -1586 48 -1680 27 -52 98 -117 152 -141
25 -12 77 -25 115 -31 91 -13 1426 -13 1517 0 92 14 167 51 219 109 49 54 73
115 88 216 13 93 14 1625 0 1625 -10 0 -106 -50 -260 -135 -52 -29 -129 -71
-170 -92 -41 -22 -148 -79 -237 -128 l-162 -88 -3 -376 c-3 -359 -4 -378 -24
-416 -28 -54 -72 -82 -144 -90 -128 -15 -207 15 -247 95 l-23 44 0 1091 0
1091 23 44 c30 60 73 87 151 95 137 15 230 -32 255 -130 7 -29 11 -215 11
-559 0 -284 2 -516 3 -516 2 0 190 101 418 224 l414 224 3 474 c3 547 -3 638
-52 731 -38 73 -102 130 -182 160 l-59 22 -745 2 c-410 0 -767 -3 -795 -7z"/>
<path d="M11764 14670 c-131 -18 -231 -96 -274 -217 l-25 -68 0 -1570 c0
-1470 1 -1574 18 -1627 33 -106 109 -180 222 -215 56 -17 112 -18 825 -18 720
0 769 1 827 19 123 37 209 138 232 271 14 77 15 1665 2 1665 -5 0 -66 -31
-135 -70 -70 -38 -129 -70 -131 -70 -2 0 -65 -33 -138 -74 -74 -41 -181 -99
-238 -129 -57 -31 -123 -66 -146 -79 l-43 -23 0 -371 c0 -412 -1 -416 -64
-472 -28 -24 -47 -32 -100 -37 -130 -14 -215 17 -252 92 -18 37 -19 76 -19
1138 l0 1100 22 41 c39 73 125 104 247 89 68 -9 113 -37 143 -90 l23 -40 0
-537 c0 -296 3 -538 8 -538 4 1 192 101 417 223 l410 222 0 555 c0 555 0 555
-23 612 -53 131 -144 199 -292 218 -90 11 -1427 11 -1516 0z"/>
<path d="M1951 18828 c-18 -35 -57 -108 -87 -163 -30 -55 -61 -113 -69 -130
-9 -16 -21 -38 -28 -47 -18 -27 0 -48 75 -88 36 -19 92 -49 124 -66 33 -17 86
-46 119 -64 156 -85 262 -142 380 -205 50 -26 95 -51 100 -55 6 -4 57 -32 115
-62 58 -31 132 -70 165 -88 114 -63 180 -99 240 -130 33 -17 96 -51 140 -75
44 -25 103 -56 130 -70 28 -15 68 -36 90 -49 118 -66 197 -106 211 -106 8 0
28 21 44 48 16 26 33 52 37 57 5 6 14 21 20 35 14 28 24 43 71 112 17 26 32
50 32 53 0 3 16 28 35 55 41 59 39 69 -25 103 -25 13 -81 43 -125 67 -44 24
-109 59 -145 78 -36 18 -83 44 -105 56 -79 44 -333 181 -420 226 -33 17 -78
41 -100 54 -22 12 -80 44 -130 71 -83 44 -113 60 -250 135 -93 50 -230 124
-300 162 -109 57 -155 83 -218 117 -31 17 -65 31 -75 31 -12 0 -29 -22 -51
-62z"/>
<path d="M23515 18871 c-16 -9 -59 -33 -95 -53 -84 -46 -188 -103 -270 -146
-36 -18 -83 -44 -105 -56 -22 -12 -80 -44 -130 -71 -49 -26 -112 -60 -140 -75
-27 -15 -86 -46 -130 -70 -156 -84 -191 -103 -240 -130 -27 -15 -86 -47 -130
-70 -150 -80 -210 -113 -268 -146 -32 -19 -60 -34 -63 -34 -2 0 -60 -31 -127
-69 -68 -38 -133 -72 -145 -75 -35 -11 -27 -41 36 -133 56 -83 90 -137 112
-178 5 -11 19 -33 30 -50 11 -16 26 -42 35 -57 24 -43 16 -45 255 85 30 16 75
41 100 54 25 13 77 41 115 62 39 21 105 56 148 79 158 86 233 126 272 148 22
13 67 37 100 54 33 17 92 48 130 70 39 21 97 53 130 70 33 17 92 49 130 70 39
22 84 46 100 54 17 9 75 40 130 70 55 30 142 76 193 102 51 27 102 58 113 70
19 21 19 21 -1 46 -11 15 -20 32 -20 40 0 8 -5 19 -10 24 -10 10 -50 83 -112
204 -18 36 -35 67 -38 70 -3 3 -11 17 -17 33 -14 31 -41 34 -88 8z"/>
<path d="M184 13027 c-2 -7 -3 -118 -2 -247 l3 -235 1094 -3 c688 -1 1098 1
1104 7 6 6 10 107 10 242 -1 185 -3 233 -14 240 -8 5 -504 9 -1102 9 -870 0
-1089 -3 -1093 -13z"/>
<path d="M23193 13033 c-10 -3 -13 -62 -13 -244 l0 -239 23 -5 c12 -3 508 -4
1102 -3 l1080 3 0 245 0 245 -1090 2 c-599 1 -1096 -1 -1102 -4z"/>
<path d="M3580 8121 c-25 -15 -85 -49 -135 -76 -49 -26 -108 -58 -130 -70 -22
-13 -78 -42 -125 -66 -47 -24 -110 -58 -140 -75 -30 -17 -84 -47 -120 -66 -36
-20 -95 -52 -132 -72 -38 -20 -96 -51 -130 -70 -35 -18 -90 -48 -123 -66 -33
-18 -85 -46 -115 -62 -68 -36 -170 -91 -275 -148 -44 -24 -102 -55 -128 -69
-26 -14 -78 -43 -115 -63 -37 -20 -80 -43 -97 -51 -16 -8 -36 -21 -44 -31 -15
-18 -18 -13 95 -221 29 -55 68 -128 86 -162 20 -39 38 -63 48 -63 9 0 37 11
61 24 24 14 71 39 104 56 33 17 80 43 105 56 25 14 97 53 160 86 63 33 120 64
125 68 10 8 47 28 224 120 47 25 122 65 166 90 161 89 201 111 260 141 33 16
78 40 100 53 45 25 202 110 255 138 19 10 80 43 135 73 55 29 128 68 162 86
63 33 82 59 57 80 -8 6 -14 17 -14 24 0 6 -9 20 -20 30 -11 10 -20 22 -20 27
0 4 -15 30 -32 56 -43 63 -49 72 -105 169 -55 95 -68 100 -143 54z"/>
<path d="M21859 8079 c-56 -89 -104 -165 -163 -256 -25 -40 -46 -80 -46 -90 0
-13 27 -33 93 -67 111 -58 219 -116 267 -143 20 -11 71 -39 115 -63 117 -62
193 -103 255 -137 30 -17 96 -52 145 -78 50 -27 108 -59 130 -71 22 -13 67
-36 100 -53 33 -17 94 -49 135 -72 41 -23 109 -59 150 -82 41 -22 98 -52 125
-67 28 -15 91 -49 140 -75 50 -27 108 -59 130 -71 76 -43 121 -64 136 -64 8 0
30 28 48 63 18 34 57 107 87 162 103 192 109 205 90 223 -15 16 -115 72 -271
153 -33 17 -91 48 -130 70 -38 22 -97 53 -130 70 -33 17 -78 41 -100 54 -22
13 -67 38 -100 55 -33 17 -91 48 -130 69 -38 22 -99 55 -135 73 -125 66 -245
131 -255 138 -5 5 -50 29 -100 55 -49 25 -120 63 -157 83 -119 65 -171 94
-248 133 -41 22 -79 44 -84 49 -27 27 -54 10 -97 -61z"/>
<path d="M7448 4629 c-9 -5 -31 -35 -49 -67 -18 -31 -36 -59 -40 -62 -4 -3
-13 -17 -18 -30 -6 -14 -29 -52 -51 -85 -22 -33 -43 -67 -47 -75 -4 -8 -21
-35 -37 -60 -17 -25 -38 -57 -46 -72 -15 -28 -72 -121 -100 -163 -18 -27 -106
-171 -135 -219 -31 -53 -89 -146 -105 -171 -8 -13 -30 -50 -49 -82 -18 -32
-37 -60 -40 -63 -4 -3 -28 -41 -55 -85 -26 -44 -65 -107 -86 -140 -22 -33 -46
-73 -55 -90 -18 -34 -28 -52 -70 -115 -36 -54 -37 -57 -99 -162 -27 -46 -54
-90 -62 -98 -7 -8 -15 -27 -19 -41 -6 -26 3 -36 67 -74 23 -14 177 -106 266
-161 46 -28 78 -41 87 -37 15 9 45 52 95 137 19 32 42 69 50 81 8 13 37 61 65
107 27 45 52 85 55 88 3 3 27 41 53 85 61 102 66 110 103 165 17 25 35 56 38
68 4 12 11 22 16 22 5 0 12 10 16 22 3 12 21 43 38 68 38 56 42 63 106 170 28
47 69 112 90 145 42 64 43 67 105 170 22 37 48 79 57 93 10 15 21 34 25 42 4
8 21 35 37 60 47 69 55 83 68 110 7 14 15 27 18 30 9 8 44 63 57 90 7 14 21
37 30 52 10 14 32 50 50 79 37 63 35 68 -44 104 -29 14 -79 37 -110 51 -32 15
-96 45 -143 68 -111 55 -113 55 -132 45z"/>
<path d="M18005 4591 c-89 -44 -126 -61 -252 -117 -17 -8 -35 -14 -40 -14 -14
0 -43 -34 -43 -51 0 -8 16 -38 35 -68 19 -29 35 -54 35 -56 0 -4 40 -66 57
-91 11 -14 26 -39 70 -113 21 -35 45 -74 53 -86 22 -34 83 -133 100 -163 8
-15 18 -29 21 -32 3 -3 21 -31 40 -63 44 -76 49 -83 84 -137 42 -63 53 -82 64
-108 6 -12 16 -28 21 -35 12 -13 49 -72 126 -202 27 -44 52 -81 56 -83 4 -2 8
-7 8 -12 0 -5 23 -44 50 -87 28 -43 55 -87 60 -98 6 -11 28 -47 50 -80 22 -33
45 -71 52 -85 7 -14 15 -27 18 -30 4 -3 21 -30 38 -60 42 -70 50 -84 90 -142
17 -26 32 -52 32 -56 0 -5 11 -19 24 -31 l25 -23 73 45 c40 25 113 70 161 99
120 72 118 71 150 92 32 22 35 53 9 87 -11 13 -32 46 -48 72 -16 27 -37 61
-47 75 -9 15 -23 38 -30 52 -7 14 -26 45 -42 70 -35 53 -40 61 -84 137 -19 32
-37 60 -40 63 -3 3 -13 17 -21 32 -16 29 -76 127 -100 163 -8 13 -39 63 -68
111 -29 49 -71 116 -92 149 -55 85 -139 222 -160 260 -5 11 -28 47 -50 80 -22
33 -44 69 -50 80 -6 11 -30 52 -55 90 -24 39 -65 105 -92 148 -26 43 -56 91
-65 105 -10 15 -23 38 -30 52 -15 31 -77 110 -86 110 -4 0 -52 -22 -107 -49z"/>
<path d="M12710 3790 c-97 -15 -160 -27 -165 -32 -7 -7 -7 -2717 0 -2728 9
-15 468 -13 483 2 9 9 12 326 12 1365 0 1278 -1 1353 -17 1361 -47 23 -239 43
-313 32z"/>
</g>
</svg>
