<?xml version="1.0" standalone="no"?>
<!DOCTYPE svg PUBLIC "-//W3C//DTD SVG 20010904//EN"
 "http://www.w3.org/TR/2001/REC-SVG-20010904/DTD/svg10.dtd">
<svg version="1.0" xmlns="http://www.w3.org/2000/svg"
 width="2560.000000pt" height="2560.000000pt" viewBox="0 0 2560.000000 2560.000000"
 preserveAspectRatio="xMidYMid meet">
<metadata>
Created by potrace 1.14, written by Peter Selinger 2001-2017
</metadata>
<g transform="translate(0.000000,2560.000000) scale(0.100000,-0.100000)"
fill="#0E5FF2" stroke="none">
<path d="M0 14935 l0 -9245 12800 0 12800 0 0 9245 0 9245 -12800 0 -12800 0
0 -9245z m3940 7101 c0 -8 3 -8 8 -1 10 15 472 15 472 0 0 -7 3 -7 8 0 10 15
464 15 474 1 5 -7 8 -7 8 -1 0 15 470 15 470 0 0 -7 3 -7 8 0 10 15 464 15
474 1 5 -7 8 -8 8 -1 0 15 462 15 472 1 5 -8 8 -8 8 -1 0 15 1750 15 1750 0 0
-6 3 -6 8 0 10 15 472 15 472 0 0 -7 3 -7 8 0 10 15 784 15 794 1 5 -7 8 -8 8
-1 0 15 470 15 470 0 0 -7 3 -7 8 0 10 15 464 15 474 1 5 -7 8 -7 8 -1 0 15
470 15 470 0 0 -7 3 -7 8 0 10 15 464 15 474 1 5 -7 8 -7 8 -1 0 15 470 15
470 0 0 -7 3 -7 8 0 10 15 464 15 474 1 5 -7 8 -8 8 -1 0 15 462 15 472 1 5
-7 8 -7 8 -1 0 15 150 15 150 1 0 -8 3 -8 8 -1 10 15 472 15 472 0 0 -7 3 -7
8 0 10 15 464 15 474 1 5 -7 8 -7 8 -1 0 15 470 15 470 0 0 -7 3 -7 8 0 10 15
464 15 474 1 5 -7 8 -7 8 -1 0 15 470 15 470 0 0 -7 3 -7 8 0 10 15 464 15
474 1 5 -7 8 -7 8 -1 0 15 470 15 470 0 0 -7 3 -7 8 0 10 15 784 15 794 1 5
-8 8 -8 8 -1 0 15 462 15 472 1 5 -7 8 -7 8 -1 0 15 1750 15 1750 0 0 -7 3 -7
8 0 10 15 472 15 472 0 0 -7 3 -7 8 0 10 15 464 15 474 1 5 -7 8 -7 8 -1 0 15
470 15 470 0 0 -7 3 -7 8 0 10 15 464 15 474 1 5 -7 8 -8 8 -1 0 15 462 15
472 1 6 -8 8 -8 8 0 0 10 329 15 331 4 1 -3 2 -3043 3 -6756 l2 -6750 -9246 0
-9245 0 0 6745 c0 3710 3 6751 7 6756 9 14 378 15 378 1z"/>
<path d="M4980 20605 c-1 -11 -2 -2412 -3 -5335 l-2 -5315 7820 0 c4301 0
7822 3 7825 6 7 10 5 10643 -2 10654 -7 11 -228 12 -246 1 -6 -3 -13 -3 -15 1
-6 10 -209 9 -225 -1 -6 -3 -13 -3 -15 1 -6 10 -209 9 -224 0 -7 -4 -14 -4
-16 0 -6 10 -209 9 -225 -1 -6 -3 -13 -3 -15 1 -6 10 -209 9 -224 0 -7 -4 -14
-4 -16 0 -6 10 -209 9 -225 -1 -6 -3 -13 -3 -15 1 -6 10 -209 9 -224 0 -7 -4
-14 -4 -16 0 -6 10 -209 9 -225 -1 -6 -3 -13 -3 -15 1 -6 10 -209 9 -224 0 -7
-4 -14 -4 -16 0 -6 10 -209 9 -225 -1 -6 -3 -13 -3 -15 1 -6 10 -209 9 -224 0
-7 -4 -14 -4 -16 0 -6 10 -209 9 -225 -1 -6 -3 -13 -3 -15 1 -6 10 -209 9
-224 0 -7 -4 -14 -4 -16 0 -6 10 -209 9 -225 -1 -6 -3 -13 -3 -15 1 -6 10
-209 9 -224 0 -7 -4 -14 -4 -16 0 -6 10 -209 9 -225 -1 -6 -3 -13 -3 -15 1 -6
10 -209 9 -224 0 -7 -4 -14 -4 -16 0 -6 10 -209 9 -225 -1 -6 -3 -13 -3 -15 1
-6 10 -209 9 -224 0 -7 -4 -14 -4 -16 0 -6 10 -209 9 -225 -1 -6 -3 -13 -3
-15 1 -6 10 -209 9 -224 0 -7 -4 -14 -4 -16 0 -6 10 -239 9 -255 -1 -7 -4 -12
-3 -12 1 0 10 -131 10 -148 -1 -7 -4 -12 -3 -12 1 0 10 -131 10 -148 -1 -7 -4
-12 -3 -12 1 0 10 -131 10 -148 -1 -7 -4 -12 -3 -12 1 0 10 -131 10 -148 -1
-7 -4 -12 -3 -12 1 0 10 -131 10 -148 -1 -7 -4 -12 -3 -12 1 0 10 -131 10
-148 -1 -7 -4 -12 -3 -12 1 0 10 -131 10 -148 -1 -7 -4 -12 -3 -12 1 0 10
-131 10 -148 -1 -7 -4 -12 -3 -12 1 0 10 -131 10 -148 -1 -7 -4 -12 -3 -12 1
0 10 -131 10 -148 -1 -7 -4 -12 -3 -12 1 0 10 -131 10 -148 -1 -7 -4 -12 -3
-12 1 0 10 -131 10 -148 -1 -7 -4 -12 -3 -12 1 0 10 -131 10 -148 -1 -7 -4
-12 -3 -12 1 0 10 -131 10 -148 -1 -7 -4 -12 -3 -12 1 0 10 -131 10 -148 -1
-7 -4 -12 -3 -12 1 0 10 -131 10 -148 -1 -7 -4 -12 -3 -12 1 0 10 -131 10
-148 -1 -7 -4 -12 -3 -12 1 0 10 -131 10 -148 -1 -7 -4 -12 -3 -12 1 0 10
-131 10 -148 -1 -7 -4 -12 -3 -12 1 0 10 -131 10 -148 -1 -7 -4 -12 -3 -12 1
0 10 -131 10 -148 -1 -7 -4 -12 -3 -12 1 0 10 -131 10 -148 -1 -7 -4 -12 -3
-12 1 0 10 -131 10 -148 -1 -7 -4 -12 -3 -12 1 0 10 -131 10 -148 -1 -7 -4
-12 -3 -12 1 0 10 -131 10 -148 -1 -7 -4 -12 -3 -12 1 0 10 -131 10 -148 -1
-7 -4 -12 -3 -12 1 0 10 -131 10 -148 -1 -7 -4 -12 -3 -12 1 0 10 -131 10
-148 -1 -7 -4 -12 -3 -12 1 0 10 -131 10 -148 -1 -7 -4 -12 -3 -12 1 0 10
-131 10 -148 -1 -7 -4 -12 -3 -12 1 0 10 -131 10 -148 -1 -7 -4 -12 -4 -12 1
0 10 -262 9 -278 -1 -6 -3 -13 -3 -15 1 -6 10 -209 9 -224 0 -7 -4 -14 -4 -16
0 -6 10 -209 9 -225 -1 -6 -3 -13 -3 -15 1 -6 10 -209 9 -224 0 -7 -4 -14 -4
-16 0 -6 10 -209 9 -225 -1 -6 -3 -13 -3 -15 1 -6 10 -209 9 -224 0 -7 -4 -14
-4 -16 0 -6 10 -209 9 -225 -1 -6 -3 -13 -3 -15 1 -6 10 -209 9 -224 0 -7 -4
-14 -4 -16 0 -6 10 -209 9 -225 -1 -6 -3 -13 -3 -15 1 -6 10 -209 9 -224 0 -7
-4 -14 -4 -16 0 -6 10 -209 9 -225 -1 -6 -3 -13 -3 -15 1 -6 10 -209 9 -224 0
-7 -4 -14 -4 -16 0 -6 10 -209 9 -225 -1 -6 -3 -13 -3 -15 1 -6 10 -209 9
-224 0 -7 -4 -14 -4 -16 0 -6 10 -209 9 -225 -1 -6 -3 -13 -3 -15 1 -6 10
-209 9 -224 0 -7 -4 -14 -4 -16 0 -6 10 -209 9 -225 -1 -6 -3 -13 -3 -15 1 -6
10 -209 9 -224 0 -7 -4 -14 -4 -16 0 -6 10 -209 9 -225 -1 -6 -3 -13 -3 -15 1
-6 10 -209 9 -224 0 -7 -4 -14 -4 -16 0 -5 7 -196 9 -222 3 -5 -1 -14 -1 -20
0 -5 1 -65 3 -132 4 -117 1 -123 0 -123 -19z"/>
<path d="M8974 2844 l-711 -1421 4538 0 4538 0 -712 1421 -712 1421 -3115 1
-3116 0 -710 -1422z"/>
</g>
</svg>
