<?xml version="1.0" standalone="no"?>
<!DOCTYPE svg PUBLIC "-//W3C//DTD SVG 20010904//EN"
 "http://www.w3.org/TR/2001/REC-SVG-20010904/DTD/svg10.dtd">
<svg version="1.0" xmlns="http://www.w3.org/2000/svg"
 width="500.000000pt" height="500.000000pt" viewBox="0 0 500.000000 500.000000"
 preserveAspectRatio="xMidYMid meet">

<g transform="translate(0.000000,500.000000) scale(0.100000,-0.100000)"
fill="rgb(255,255,255)" stroke="none">
<path d="M1530 4959 c-237 -30 -442 -101 -610 -210 -80 -53 -233 -204 -284
-282 -140 -215 -200 -439 -200 -752 1 -263 41 -449 140 -648 128 -256 219
-357 694 -772 359 -313 490 -440 571 -550 61 -83 131 -225 153 -311 26 -99 38
-251 27 -330 -20 -141 -59 -207 -146 -249 -50 -25 -64 -27 -138 -23 -98 5
-154 29 -217 91 -106 106 -167 315 -186 640 -4 80 -10 117 -18 117 -7 0 -205
-29 -441 -65 -236 -36 -433 -65 -437 -65 -13 0 -9 -125 7 -265 80 -695 358
-1072 890 -1209 93 -24 178 -35 333 -46 311 -21 603 36 814 161 36 21 71 39
77 39 6 0 33 -14 61 -31 178 -109 448 -170 760 -171 203 -1 320 15 477 67 185
62 313 137 445 264 170 161 267 333 329 581 22 86 24 115 23 315 0 189 -3 235
-23 325 -56 262 -160 483 -330 705 -87 114 -267 289 -586 570 -420 371 -508
464 -588 622 -73 144 -95 372 -49 503 29 85 80 152 139 187 42 24 58 28 128
28 92 0 143 -21 190 -77 68 -81 98 -196 115 -448 6 -91 13 -166 14 -168 2 -1
205 22 451 53 245 30 449 55 452 55 8 0 -7 176 -28 321 -46 325 -159 580 -332
752 -153 150 -367 245 -622 277 -125 16 -430 8 -555 -15 -130 -23 -316 -86
-418 -140 l-85 -45 -64 41 c-188 118 -402 170 -696 168 -95 -1 -201 -5 -237
-10z m307 -774 c64 -19 132 -91 164 -173 19 -50 23 -84 29 -282 10 -318 48
-484 161 -699 117 -225 228 -344 704 -761 447 -391 541 -491 628 -665 74 -148
102 -283 95 -452 -7 -136 -30 -204 -92 -261 -55 -50 -108 -66 -206 -60 -106 7
-184 49 -243 135 l-27 39 12 117 c8 88 8 151 -1 250 -26 301 -107 542 -261
777 -136 207 -240 314 -666 691 -461 408 -523 473 -605 644 -54 111 -72 203
-67 345 6 150 29 212 107 290 79 79 158 98 268 65z"/>
</g>
</svg>
