<?xml version="1.0" standalone="no"?>
<!DOCTYPE svg PUBLIC "-//W3C//DTD SVG 20010904//EN"
 "http://www.w3.org/TR/2001/REC-SVG-20010904/DTD/svg10.dtd">
<svg version="1.0" xmlns="http://www.w3.org/2000/svg"
 width="2560.000000pt" height="2560.000000pt" viewBox="0 0 2560.000000 2560.000000"
 preserveAspectRatio="xMidYMid meet">

<g transform="translate(0.000000,2560.000000) scale(0.100000,-0.100000)"
fill="rgb(255, 255, 255)" stroke="none">
<path d="M2229 23049 c-716 -41 -1232 -266 -1565 -681 -235 -292 -368 -658
-441 -1213 -16 -121 -17 -661 -20 -8150 -3 -5581 -1 -8075 7 -8202 50 -866
317 -1433 830 -1765 273 -178 587 -278 1025 -330 88 -10 876 -13 3985 -13
l3875 0 165 23 c489 67 843 206 1119 437 177 149 293 295 401 506 129 252 196
478 252 844 l22 150 3 4353 3 4353 -37 -20 c-21 -11 -1032 -560 -2248 -1219
l-2210 -1199 -6 -1974 c-5 -1970 -5 -1974 -27 -2067 -50 -221 -117 -367 -229
-504 -113 -139 -264 -233 -458 -286 l-100 -27 -455 0 -455 0 -96 27 c-341 94
-557 315 -662 678 -61 210 -57 -223 -57 6100 0 5141 2 5782 15 5887 38 288
124 489 279 651 98 104 190 164 318 211 150 56 293 71 663 71 407 0 552 -20
721 -100 233 -108 408 -327 484 -602 58 -214 54 39 60 -3063 l5 -2840 2245
1217 2245 1217 3 2693 c2 1847 -1 2735 -8 2828 -69 867 -378 1433 -951 1739
-246 131 -537 214 -909 258 -135 16 -412 17 -3900 19 -2065 1 -3816 -2 -3891
-7z"/>
<path d="M15830 23050 c-652 -36 -1143 -225 -1470 -566 -145 -152 -223 -265
-316 -459 -142 -299 -223 -673 -244 -1129 -13 -269 -12 -15793 0 -16053 14
-291 44 -504 100 -718 109 -415 299 -740 561 -960 327 -274 725 -417 1294
-465 165 -14 7564 -14 7741 0 609 47 1056 217 1378 521 323 305 514 743 586
1341 27 224 30 642 30 4642 0 3323 -3 4157 -12 4153 -7 -3 -1021 -552 -2253
-1220 l-2240 -1214 -5 -1969 c-5 -1838 -7 -1975 -23 -2058 -97 -481 -356 -749
-801 -826 -34 -6 -225 -10 -440 -10 -299 0 -400 3 -471 16 -202 34 -362 114
-490 244 -87 87 -120 133 -179 250 -49 97 -88 220 -113 365 -17 95 -18 395
-18 5935 0 5443 1 5842 17 5935 79 468 315 752 705 850 110 27 321 38 653 32
350 -6 429 -17 572 -76 114 -48 190 -98 274 -181 155 -153 234 -314 292 -590
14 -67 17 -379 22 -2915 l5 -2840 2253 1220 2252 1220 -3 2730 c-3 2969 0
2797 -57 3130 -117 685 -429 1150 -945 1411 -301 152 -630 229 -1080 254 -211
11 -7365 11 -7575 0z"/>
</g>
</svg>
