<?xml version="1.0" standalone="no"?>
<!DOCTYPE svg PUBLIC "-//W3C//DTD SVG 20010904//EN"
 "http://www.w3.org/TR/2001/REC-SVG-20010904/DTD/svg10.dtd">
<svg version="1.0" xmlns="http://www.w3.org/2000/svg"
 width="2560.000000pt" height="2560.000000pt" viewBox="0 0 2560.000000 2560.000000"
 preserveAspectRatio="xMidYMid meet">

<g transform="translate(0.000000,2560.000000) scale(0.100000,-0.100000)"
fill="rgb(14,95,242)" stroke="none">
<path d="M40 14930 l0 -9210 12760 0 12760 0 0 9210 0 9210 -12760 0 -12760 0
0 -9210z m21980 350 l0 -6740 -9220 0 -9220 0 0 6740 0 6740 9220 0 9220 0 0
-6740z"/>
<path d="M5010 15280 l0 -5310 7795 0 7795 0 0 5310 0 5310 -7795 0 -7795 0 0
-5310z m3153 2467 c98 -26 253 -94 316 -139 l35 -25 80 43 c101 53 228 97 359
126 89 19 133 22 342 23 216 0 249 -2 327 -22 396 -101 627 -341 734 -760 28
-112 53 -288 56 -403 l3 -84 -380 -47 c-209 -26 -401 -49 -426 -52 l-46 -6 -7
127 c-21 386 -94 522 -281 522 -105 0 -173 -49 -226 -162 -33 -71 -34 -76 -34
-198 1 -138 14 -201 67 -305 73 -147 153 -230 588 -615 394 -349 548 -520 664
-740 161 -307 213 -713 132 -1033 -51 -200 -135 -347 -281 -492 -199 -198
-426 -298 -740 -325 -289 -25 -611 32 -820 144 l-80 43 -90 -48 c-213 -115
-475 -163 -755 -139 -304 25 -505 91 -684 224 -243 180 -388 488 -442 941 -12
104 -19 255 -11 255 1 0 190 29 420 63 230 35 420 60 422 57 2 -4 9 -72 15
-151 12 -175 24 -254 51 -339 45 -143 104 -226 188 -268 47 -23 69 -27 136
-27 66 0 87 4 122 24 92 53 129 157 120 341 -10 196 -64 339 -186 496 -88 115
-184 206 -521 501 -151 132 -321 287 -377 345 -197 204 -322 441 -371 703 -23
127 -23 409 1 529 36 179 112 366 188 463 202 256 441 380 844 437 17 2 125 3
240 1 189 -2 220 -5 308 -28z m4557 -54 c229 -53 371 -126 511 -263 48 -47
109 -121 138 -165 28 -44 51 -72 51 -62 0 18 -46 407 -56 470 l-6 37 426 0
426 0 4 -22 c3 -13 30 -279 61 -593 79 -800 195 -1949 198 -1951 3 -3 125 942
266 2041 l66 520 332 3 331 2 6 -27 c3 -16 33 -230 66 -478 157 -1172 272
-2002 278 -2019 8 -19 28 168 177 1639 47 462 88 850 91 863 l4 22 415 0 c227
0 416 -3 418 -7 4 -8 -435 -3678 -473 -3948 -21 -155 -75 -472 -86 -508 -5
-16 -32 -17 -427 -15 l-421 3 -185 1313 c-102 721 -188 1312 -191 1312 -3 0
-16 -78 -28 -172 -12 -95 -90 -683 -172 -1307 -83 -624 -150 -1138 -150 -1142
0 -5 -200 -9 -445 -9 -349 0 -445 3 -445 13 0 6 -77 644 -170 1417 -94 773
-170 1411 -170 1419 0 33 -12 -3 -34 -101 -49 -215 -128 -377 -246 -501 -154
-164 -345 -256 -635 -308 -100 -18 -173 -22 -442 -26 l-323 -6 0 -948 0 -949
-500 0 -500 0 0 2240 0 2241 873 -3 c854 -3 874 -4 967 -25z m5804 -270 c3
-10 118 -623 255 -1363 138 -740 325 -1739 414 -2220 90 -481 161 -878 157
-883 -3 -4 -211 -6 -461 -5 l-454 3 -16 95 c-8 52 -14 98 -12 103 2 4 168 7
369 7 333 0 364 1 364 17 0 15 -224 1223 -619 3337 -94 500 -168 913 -165 918
3 4 41 8 84 8 66 0 79 -3 84 -17z m-705 -1393 c28 -212 51 -405 51 -430 0 -40
-103 -829 -116 -887 -4 -22 -8 -23 -119 -23 -110 0 -115 1 -115 21 0 19 211
1589 226 1682 3 22 9 35 14 30 4 -4 30 -181 59 -393z m288 -2000 c6 -41 12
-87 12 -102 l1 -28 -240 0 -240 0 -5 -22 c-3 -13 -37 -216 -75 -453 -39 -236
-72 -440 -75 -452 l-5 -23 -470 0 c-441 0 -470 1 -470 18 1 9 9 55 18 102 l18
85 346 3 c319 2 347 4 352 20 3 9 37 217 77 462 40 245 77 451 82 458 7 9 82
12 336 10 l326 -3 12 -75z"/>
<path d="M7693 17030 c-57 -29 -106 -86 -134 -156 -21 -51 -24 -76 -24 -189 0
-144 17 -216 78 -325 75 -137 141 -205 502 -524 149 -131 314 -282 368 -335
289 -282 439 -540 510 -876 18 -84 21 -136 22 -325 l1 -225 49 -53 c64 -67
139 -97 230 -89 160 12 228 110 229 327 0 184 -43 329 -142 474 -90 133 -163
208 -457 465 -154 134 -327 288 -384 340 -193 178 -318 351 -402 561 -61 153
-79 251 -88 495 -9 220 -18 269 -64 350 -12 21 -42 53 -65 69 -37 26 -54 31
-115 34 -58 2 -80 -1 -114 -18z"/>
<path d="M11880 16430 l0 -590 208 0 c289 0 380 25 451 122 69 94 93 219 92
493 0 313 -50 447 -193 517 -78 39 -151 48 -365 48 l-193 0 0 -590z"/>
<path d="M8992 2885 c-386 -773 -702 -1410 -702 -1415 0 -7 1513 -10 4510 -10
2997 0 4510 3 4510 10 0 5 -316 642 -702 1415 l-703 1405 -3105 0 -3105 0
-703 -1405z"/>
</g>
</svg>
