<?xml version="1.0" standalone="no"?>
<!DOCTYPE svg PUBLIC "-//W3C//DTD SVG 20010904//EN"
 "http://www.w3.org/TR/2001/REC-SVG-20010904/DTD/svg10.dtd">
<svg version="1.0" xmlns="http://www.w3.org/2000/svg"
 width="2560.000000pt" height="2560.000000pt" viewBox="0 0 2560.000000 2560.000000"
 preserveAspectRatio="xMidYMid meet">

<g transform="translate(0.000000,2560.000000) scale(0.100000,-0.100000)"
fill="#000000" stroke="none">
<path d="M17591 19314 c-151 -35 -276 -66 -279 -68 -2 -3 19 -45 47 -94 l51
-89 0 -994 0 -994 -50 -85 c-27 -47 -50 -88 -50 -92 0 -5 160 -8 355 -8 195 0
355 2 355 4 0 2 -22 42 -50 89 l-50 85 0 1156 0 1156 -27 -1 c-16 -1 -151 -30
-302 -65z"/>
<path d="M6418 19334 c-27 -8 -63 -30 -83 -49 -68 -69 -66 -23 -63 -1186 l3
-1044 22 -40 c27 -50 57 -79 108 -102 36 -16 84 -18 534 -21 328 -2 511 1 546
8 78 16 131 55 163 120 l27 55 3 554 3 554 -53 -30 c-29 -17 -151 -83 -270
-147 l-216 -117 -4 -247 c-3 -213 -5 -251 -21 -279 -28 -51 -61 -68 -137 -68
-76 0 -109 17 -137 68 -17 30 -18 82 -18 762 l0 730 23 37 c26 42 63 58 134
58 63 0 108 -21 133 -63 19 -30 20 -57 25 -382 l5 -351 268 146 268 145 -4
360 c-4 400 -6 414 -69 477 -67 67 -78 68 -642 67 -409 0 -510 -3 -548 -15z"/>
<path d="M14465 19341 c-86 -22 -136 -74 -160 -168 -14 -53 -15 -184 -13
-1080 l3 -1019 30 -60 c27 -51 38 -62 90 -89 l59 -30 520 0 c580 0 578 0 644
68 67 69 66 63 70 670 l3 549 -103 -56 c-57 -31 -181 -98 -275 -148 l-173 -93
0 -243 c0 -262 -5 -295 -53 -327 -35 -23 -114 -29 -162 -13 -25 8 -48 26 -62
47 l-23 34 0 739 c0 811 -2 781 60 813 35 18 135 20 169 2 13 -6 34 -25 45
-40 20 -27 21 -43 26 -388 l5 -359 273 147 272 148 0 315 c0 173 -5 344 -10
380 -15 89 -52 147 -115 179 l-49 26 -521 2 c-286 1 -533 -2 -550 -6z"/>
<path d="M12190 19144 c-140 -29 -256 -53 -257 -54 -2 0 -3 -56 -3 -125 l0
-125 -65 0 -65 0 0 -180 0 -180 65 0 64 0 3 -712 c3 -662 4 -716 21 -753 10
-22 30 -52 45 -68 47 -50 98 -57 394 -57 l268 0 0 220 c0 121 -3 220 -6 220
-4 0 -32 -16 -64 -35 -32 -19 -67 -35 -78 -35 -28 0 -50 24 -57 63 -3 18 -4
284 -3 592 l3 560 103 3 102 3 0 179 0 179 -102 3 -103 3 -5 176 -5 176 -255
-53z"/>
<path d="M7810 18834 c0 -3 23 -43 50 -89 l50 -83 0 -795 0 -795 -50 -85 c-27
-47 -50 -88 -50 -91 0 -3 160 -6 355 -6 195 0 355 3 355 6 0 3 -22 43 -50 89
l-50 83 0 664 0 665 23 33 c12 19 34 38 50 43 25 8 39 0 155 -82 l127 -91 5
258 5 257 52 -70 c29 -38 55 -79 58 -90 3 -11 73 -424 155 -919 130 -774 149
-903 140 -932 -23 -69 -83 -72 -194 -9 -43 25 -82 45 -87 45 -5 0 -9 -103 -9
-231 l0 -230 388 3 c383 3 388 3 440 27 60 27 106 75 133 139 18 40 80 401
309 1801 l52 314 55 79 c30 43 56 78 58 78 2 0 24 -35 49 -78 l46 -79 0 -1054
0 -1054 -50 -83 c-28 -46 -50 -85 -50 -88 0 -2 162 -4 360 -4 l359 0 -55 94
-55 94 3 158 3 159 300 5 c333 6 350 9 398 71 14 19 30 52 36 74 15 56 15
1614 0 1670 -14 51 -73 110 -124 124 -28 8 -328 11 -992 11 -524 0 -953 -2
-953 -4 0 -2 18 -43 39 -90 l40 -86 -59 -652 c-33 -359 -61 -662 -63 -673 -6
-37 -17 69 -72 697 l-56 627 34 68 c19 37 38 78 41 91 l7 22 -855 0 c-471 0
-856 -3 -856 -6z m3307 -380 c59 -44 58 -33 58 -589 0 -469 -1 -513 -18 -542
-26 -48 -65 -64 -145 -61 l-67 3 -3 585 c-1 322 0 596 3 609 6 22 9 23 75 19
50 -3 77 -9 97 -24z"/>
<path d="M12950 18828 c-51 -14 -88 -44 -113 -91 l-22 -42 0 -825 0 -825 23
-48 c17 -34 37 -55 70 -75 l47 -27 490 0 490 0 45 25 c29 17 53 41 70 70 l25
45 3 808 c2 530 -1 821 -8 846 -15 57 -50 104 -95 126 -38 19 -62 20 -515 22
-297 1 -488 -2 -510 -9z m567 -368 c18 -11 36 -32 40 -47 10 -36 10 -1049 0
-1085 -13 -50 -44 -68 -111 -68 -64 1 -85 10 -104 47 -18 33 -16 1089 2 1122
29 52 114 67 173 31z"/>
<path d="M16056 18826 c-21 -8 -51 -27 -67 -42 -54 -51 -59 -93 -59 -456 0
-180 3 -328 8 -328 4 1 113 59 242 130 l235 128 5 80 c4 67 9 85 29 106 30 32
81 42 132 27 60 -18 70 -47 67 -188 l-3 -118 -312 -170 c-172 -94 -328 -185
-348 -205 -19 -19 -45 -55 -58 -80 -21 -44 -22 -54 -22 -360 l0 -315 25 -45
c17 -29 41 -53 70 -70 l45 -25 613 -3 613 -3 -27 48 c-15 26 -39 66 -53 88
l-26 40 -5 820 c-5 807 -5 821 -26 860 -13 26 -37 49 -65 65 l-44 25 -465 2
c-377 2 -472 0 -504 -11z m594 -1351 l0 -215 -70 0 c-89 0 -125 18 -151 73
-36 81 -21 192 33 244 30 29 162 111 181 112 4 1 7 -96 7 -214z"/>
<path d="M18255 18825 c-50 -18 -100 -71 -114 -122 -16 -55 -15 -1608 0 -1670
7 -28 26 -60 48 -83 56 -59 83 -61 592 -58 l444 3 45 25 c29 17 53 41 70 70
l25 45 3 452 3 452 -183 -100 c-101 -55 -211 -114 -245 -131 l-62 -32 -3 -182
c-3 -177 -4 -183 -27 -208 -21 -23 -33 -26 -89 -26 -57 0 -67 3 -93 29 l-29
29 0 546 0 546 28 31 c51 57 172 47 201 -17 7 -16 11 -108 11 -270 0 -192 3
-245 13 -242 7 2 117 59 245 128 l233 125 -3 265 c-3 249 -4 267 -24 305 -28
51 -53 73 -101 91 -57 20 -930 19 -988 -1z"/>
</g>
</svg>
