<?xml version="1.0" standalone="no"?>
<!DOCTYPE svg PUBLIC "-//W3C//DTD SVG 20010904//EN"
 "http://www.w3.org/TR/2001/REC-SVG-20010904/DTD/svg10.dtd">
<svg version="1.0" xmlns="http://www.w3.org/2000/svg"
 width="2560.000000pt" height="2560.000000pt" viewBox="0 0 2560.000000 2560.000000"
 preserveAspectRatio="xMidYMid meet">

<g transform="translate(0.000000,2560.000000) scale(0.100000,-0.100000)"
fill="#000000" stroke="none">
<path d="M12552 24138 c-9 -9 -12 -317 -12 -1324 0 -727 4 -1315 9 -1318 12
-8 188 -30 236 -30 71 1 226 23 241 35 12 10 14 203 14 1314 0 1249 -1 1303
-18 1318 -16 15 -48 17 -238 17 -158 0 -223 -3 -232 -12z"/>
<path d="M6890 22737 c-31 -17 -96 -57 -225 -137 -55 -34 -112 -70 -127 -79
-16 -9 -28 -24 -28 -33 0 -14 32 -73 90 -163 8 -13 37 -59 63 -102 57 -93 147
-239 212 -343 65 -104 155 -250 212 -343 26 -43 55 -89 63 -102 8 -13 37 -59
63 -102 27 -43 68 -109 92 -148 25 -38 49 -79 55 -90 6 -11 35 -58 64 -105 30
-47 73 -116 97 -155 88 -147 109 -175 132 -175 13 0 73 25 134 55 62 30 114
55 117 55 3 0 44 18 91 40 62 29 85 45 85 58 0 17 -70 138 -205 352 -30 47
-77 123 -105 170 -28 47 -74 122 -103 167 -29 46 -99 159 -157 253 -58 94
-128 207 -157 253 -28 45 -71 114 -94 152 -23 39 -70 114 -103 168 -90 143
-89 141 -120 194 -59 97 -109 173 -115 173 -3 0 -17 -6 -31 -13z"/>
<path d="M18607 22683 c-23 -37 -63 -101 -89 -142 -26 -42 -68 -110 -93 -151
-74 -120 -160 -259 -212 -343 -26 -43 -55 -89 -63 -102 -8 -13 -37 -59 -63
-102 -57 -93 -147 -239 -212 -343 -65 -104 -155 -250 -212 -343 -26 -43 -55
-89 -63 -103 -78 -123 -110 -178 -110 -190 0 -11 155 -94 175 -94 2 0 53 -23
112 -51 156 -74 147 -72 175 -41 14 15 52 71 84 125 33 53 85 139 116 190 31
50 78 126 103 167 25 41 73 118 106 170 33 52 81 130 107 173 26 44 54 89 62
102 8 13 37 59 63 102 27 43 75 121 107 173 33 52 71 115 86 140 15 25 42 68
59 95 18 28 63 100 100 160 37 61 80 129 96 153 16 23 29 50 29 60 0 11 -49
46 -141 102 -77 47 -152 93 -167 102 -38 25 -100 58 -107 58 -3 0 -25 -30 -48
-67z"/>
<path d="M11640 19750 c-9 -6 -109 -10 -245 -10 -314 -1 -776 -32 -890 -60
-22 -5 -57 -10 -78 -10 -21 0 -84 -9 -140 -20 -56 -11 -138 -27 -182 -36 -100
-19 -235 -51 -299 -70 -26 -8 -55 -14 -64 -14 -9 0 -45 -9 -81 -21 -36 -11
-88 -27 -116 -35 -46 -13 -224 -71 -335 -109 -25 -8 -53 -20 -62 -25 -10 -6
-23 -10 -28 -10 -10 0 -158 -60 -237 -96 -17 -8 -34 -14 -37 -14 -27 0 -604
-293 -706 -359 -14 -9 -34 -21 -45 -28 -189 -113 -353 -224 -545 -366 -122
-90 -242 -185 -310 -243 -14 -12 -48 -42 -76 -65 -324 -276 -692 -667 -960
-1020 -77 -101 -96 -128 -185 -254 -138 -195 -294 -447 -424 -687 -64 -117
-218 -431 -250 -508 -40 -98 -55 -133 -65 -152 -6 -10 -16 -35 -24 -55 -7 -21
-37 -101 -66 -178 -90 -243 -193 -578 -250 -815 -101 -420 -150 -736 -191
-1235 -11 -136 -14 -808 -4 -948 38 -529 114 -995 235 -1442 12 -44 28 -102
35 -130 7 -27 24 -84 38 -125 13 -41 36 -113 51 -160 38 -120 142 -404 171
-465 8 -16 33 -75 55 -130 39 -94 224 -472 273 -560 13 -22 37 -65 54 -95 16
-30 39 -69 49 -87 10 -17 47 -78 81 -136 58 -97 152 -241 261 -397 298 -428
765 -939 1156 -1264 39 -32 89 -74 111 -93 143 -123 542 -403 765 -538 200
-120 588 -321 765 -396 128 -54 234 -95 355 -139 80 -28 161 -58 180 -65 19
-7 78 -25 130 -40 52 -15 124 -36 160 -46 65 -19 132 -35 264 -65 38 -8 73
-17 78 -20 4 -3 47 -12 95 -20 49 -9 120 -22 158 -29 216 -40 361 -56 740 -85
180 -13 555 -13 710 0 301 25 357 31 460 46 94 14 285 18 1310 24 714 5 1236
12 1290 19 276 31 396 48 525 73 30 6 89 16 130 23 95 16 217 43 250 54 14 5
68 19 120 31 52 12 113 28 135 35 22 8 74 23 115 35 124 36 389 128 475 166
17 7 75 31 130 54 222 92 616 289 756 378 15 9 53 32 85 51 33 19 138 86 234
150 527 349 996 771 1426 1281 107 128 220 270 281 355 193 272 265 381 358
545 6 10 16 24 21 31 6 8 31 50 55 94 23 44 60 112 81 150 181 332 387 807
484 1115 14 47 39 123 54 170 15 47 38 123 50 170 12 47 26 94 30 105 10 26
42 159 70 290 12 55 26 120 32 145 20 90 78 473 102 685 25 214 39 638 31 935
-11 435 -30 629 -110 1110 -7 47 -23 128 -35 180 -12 52 -28 124 -36 160 -24
111 -107 431 -123 472 -5 13 -26 77 -46 143 -35 113 -67 205 -86 250 -5 11
-22 56 -38 100 -113 308 -327 749 -525 1083 -33 57 -67 113 -74 125 -105 180
-426 620 -591 811 -144 167 -216 243 -420 446 -130 129 -293 282 -361 339 -69
57 -136 113 -150 125 -43 37 -331 251 -400 296 -212 142 -237 158 -380 244
-62 37 -370 206 -376 206 -2 0 -63 29 -137 64 -74 36 -163 76 -198 91 -35 14
-73 30 -84 35 -61 28 -175 74 -210 86 -22 7 -85 29 -140 49 -55 21 -129 46
-165 57 -36 10 -87 26 -115 34 -75 23 -183 53 -250 69 -227 54 -231 55 -440
94 -167 31 -458 68 -640 82 -198 16 -3013 24 -3035 9z m3090 -518 c118 -11
275 -32 400 -52 119 -19 234 -40 254 -46 11 -4 50 -13 86 -20 100 -19 259 -60
390 -99 178 -54 235 -73 277 -91 17 -8 36 -14 42 -14 6 0 25 -7 43 -14 18 -8
62 -26 98 -40 298 -114 732 -332 985 -496 12 -8 48 -30 79 -48 108 -64 145
-62 -951 -62 -963 0 -1011 1 -1033 29 -3 4 -45 38 -95 77 -248 193 -492 360
-730 499 -90 52 -405 225 -411 225 -1 0 -56 25 -121 55 -65 31 -139 66 -165
78 -93 43 -81 44 377 36 193 -3 406 -11 475 -17z m-3106 -2 c198 -9 365 -24
556 -50 117 -16 262 -40 270 -45 3 -2 38 -9 76 -15 38 -6 80 -14 94 -19 14 -5
68 -19 120 -31 52 -12 115 -28 140 -35 25 -7 79 -23 120 -35 66 -19 206 -65
350 -115 25 -9 59 -22 77 -30 17 -8 35 -15 40 -15 25 0 510 -223 628 -288 280
-155 578 -346 787 -504 58 -44 88 -60 122 -64 39 -6 54 -16 127 -90 56 -56 91
-84 106 -84 17 0 23 -6 23 -21 0 -28 29 -65 134 -167 276 -269 414 -417 576
-617 35 -44 67 -82 71 -85 3 -3 32 -41 64 -85 32 -44 61 -82 65 -85 24 -21
280 -402 349 -520 17 -30 36 -62 41 -70 41 -63 123 -219 214 -405 59 -121 112
-228 117 -238 5 -9 30 -68 54 -130 25 -61 50 -121 55 -132 5 -11 21 -51 35
-90 14 -38 30 -79 35 -90 12 -27 103 -304 121 -370 4 -16 15 -52 23 -80 54
-184 79 -292 130 -545 44 -220 58 -316 102 -695 21 -182 30 -811 15 -1030 -23
-350 -63 -658 -123 -945 -52 -253 -62 -294 -99 -419 -10 -35 -19 -69 -19 -75
0 -17 -133 -433 -159 -497 -5 -13 -26 -67 -46 -119 -20 -52 -42 -108 -50 -125
-8 -16 -33 -75 -56 -130 -81 -195 -226 -482 -357 -703 -37 -63 -73 -125 -81
-140 -25 -47 -218 -328 -308 -449 -209 -279 -342 -432 -603 -693 -222 -222
-279 -276 -430 -402 -417 -346 -887 -641 -1390 -871 -169 -77 -477 -195 -630
-242 -25 -7 -70 -21 -100 -30 -262 -79 -492 -130 -770 -170 -58 -9 -112 -18
-122 -21 -37 -11 -336 -36 -543 -44 -223 -9 -564 0 -770 19 -226 22 -628 88
-770 127 -27 7 -99 25 -159 40 -60 14 -118 29 -130 34 -12 5 -55 18 -96 30
-72 21 -237 77 -310 105 -255 98 -310 121 -545 236 -168 83 -269 137 -435 236
-155 92 -153 91 -215 133 -27 19 -84 57 -125 85 -151 102 -322 232 -514 395
-137 115 -423 395 -562 550 -27 30 -65 73 -85 95 -21 22 -59 67 -85 100 -27
33 -57 69 -67 80 -72 76 -386 522 -494 700 -66 109 -123 207 -123 211 0 3 -18
36 -39 72 -57 97 -192 371 -240 487 -23 55 -48 114 -56 130 -7 17 -29 73 -49
125 -20 52 -43 110 -51 128 -8 18 -15 38 -15 45 0 7 -6 23 -13 37 -7 14 -24
59 -36 100 -13 41 -38 122 -57 180 -18 58 -42 141 -54 185 -11 44 -27 103 -35
130 -15 58 -37 152 -64 285 -18 88 -27 136 -65 345 -8 44 -17 109 -21 145 -3
36 -12 117 -20 180 -51 419 -51 1054 0 1450 7 58 16 137 20 175 3 39 13 106
21 150 8 44 21 121 30 170 38 222 137 626 196 805 14 41 33 102 43 135 10 33
27 83 38 110 10 28 25 66 32 85 51 134 88 229 100 255 8 17 26 59 40 95 91
225 254 536 459 873 305 499 784 1058 1251 1458 487 416 1019 748 1570 978 55
23 113 49 128 57 16 8 33 14 39 14 5 0 24 7 41 15 35 16 69 28 237 84 159 53
297 94 405 121 105 26 172 42 220 51 28 5 73 14 100 20 109 23 237 42 525 79
79 10 373 25 554 28 43 1 178 -3 300 -8z m6484 -1486 c24 -5 89 -63 256 -228
123 -121 257 -260 297 -307 41 -47 97 -113 126 -146 133 -154 455 -605 554
-776 55 -95 58 -101 53 -109 -3 -4 -513 -8 -1133 -8 l-1129 0 -39 68 c-22 37
-43 74 -47 82 -4 8 -17 32 -29 52 -312 523 -619 936 -959 1293 -51 54 -56 61
-41 73 13 9 237 12 1039 12 562 0 1035 -3 1052 -6z m1557 -2090 c14 -6 95
-160 95 -181 0 -3 9 -24 19 -47 11 -23 35 -81 54 -131 20 -49 47 -121 62 -160
42 -106 127 -372 164 -510 12 -44 26 -94 31 -111 6 -16 14 -50 19 -75 5 -24
16 -71 24 -104 35 -141 48 -215 42 -234 l-6 -21 -1145 0 c-1131 0 -1144 0
-1164 20 -11 11 -20 31 -20 45 0 14 -6 54 -14 88 -8 34 -25 107 -36 162 -12
55 -28 120 -35 145 -8 25 -18 65 -23 90 -24 109 -151 512 -207 655 -60 155
-99 252 -116 292 -20 44 -23 65 -12 76 8 9 2246 9 2268 1z m595 -2094 c17 -31
41 -382 47 -675 4 -207 1 -317 -16 -541 -12 -155 -21 -287 -21 -293 0 -6 -9
-20 -20 -31 -20 -20 -33 -20 -1148 -20 -887 0 -1132 3 -1145 13 -15 11 -16 24
-7 132 32 390 37 876 10 1080 -5 39 -12 134 -16 213 l-7 142 1156 0 c1152 0
1156 0 1167 -20z m-98 -2072 c14 -11 15 -21 8 -53 -4 -22 -15 -71 -23 -110
-23 -107 -54 -231 -88 -345 -11 -36 -26 -87 -34 -115 -35 -118 -66 -216 -100
-310 -20 -55 -44 -120 -52 -145 -9 -25 -20 -49 -24 -55 -5 -5 -9 -15 -9 -23 0
-8 -9 -36 -21 -61 -35 -77 -46 -102 -89 -205 -23 -55 -49 -110 -57 -123 l-15
-23 -1119 0 -1119 0 0 21 c0 11 18 62 40 114 22 52 40 100 40 107 0 8 4 18 9
23 21 23 191 558 241 760 38 153 107 481 110 522 0 1 7 9 16 17 14 14 131 16
1143 16 886 0 1131 -3 1143 -12z m-786 -2093 c3 -8 -8 -35 -25 -60 -17 -25
-31 -48 -31 -51 0 -3 -9 -17 -19 -32 -10 -15 -49 -74 -87 -132 -37 -58 -104
-154 -148 -215 -45 -60 -90 -122 -101 -137 -31 -42 -196 -249 -226 -283 -14
-16 -64 -73 -110 -125 -93 -104 -358 -373 -458 -463 -35 -31 -73 -57 -85 -57
-11 0 -464 0 -1006 0 -893 -1 -986 1 -995 15 -7 12 -5 20 10 33 28 23 218 241
291 332 32 41 64 80 69 86 6 6 25 30 43 55 18 24 63 85 100 134 61 83 186 266
274 405 51 80 248 417 248 424 0 4 11 24 25 46 l25 40 1100 0 c958 0 1101 -2
1106 -15z m-1983 -2088 c-9 -13 -38 -35 -63 -50 -25 -15 -63 -38 -85 -52 -22
-14 -47 -28 -55 -32 -8 -4 -67 -37 -130 -73 -117 -68 -370 -197 -470 -239 -30
-13 -91 -39 -135 -58 -44 -19 -96 -41 -115 -48 -19 -8 -60 -23 -90 -35 -79
-30 -370 -127 -416 -139 -21 -5 -75 -19 -119 -31 -88 -24 -164 -43 -240 -60
-27 -6 -77 -18 -110 -25 -33 -8 -78 -16 -100 -20 -22 -3 -78 -12 -125 -20
-290 -48 -612 -75 -899 -75 -110 0 -201 3 -201 8 0 9 40 32 175 100 61 30 139
72 175 92 36 21 97 54 135 75 67 37 180 106 237 146 15 10 30 19 33 19 3 0 27
15 53 33 26 19 84 59 129 90 90 62 301 217 336 247 12 10 65 53 117 94 l95 76
943 0 943 0 -18 -23z"/>
<path d="M11110 17357 c-3 -3 -68 -11 -145 -17 -77 -6 -205 -23 -285 -36 -221
-36 -222 -37 -435 -94 -96 -27 -278 -86 -322 -106 -17 -8 -35 -14 -40 -14 -18
0 -279 -111 -383 -164 -280 -141 -476 -266 -734 -465 -216 -168 -339 -280
-544 -501 -187 -201 -276 -314 -444 -561 -134 -197 -295 -489 -387 -704 -23
-55 -46 -109 -51 -120 -20 -45 -43 -102 -55 -140 -7 -22 -31 -92 -53 -155
-152 -437 -235 -921 -248 -1450 -12 -443 59 -968 191 -1425 26 -91 52 -167
102 -305 51 -139 62 -167 136 -330 27 -59 123 -255 137 -280 5 -8 41 -71 81
-140 198 -342 422 -634 704 -916 240 -240 420 -391 665 -556 188 -126 299
-191 505 -293 149 -73 293 -136 390 -170 28 -9 59 -21 70 -26 36 -15 230 -75
305 -93 379 -95 553 -122 862 -136 343 -16 672 3 948 55 206 39 268 53 465
110 576 165 1183 508 1645 930 108 99 296 287 352 353 359 422 615 823 789
1241 22 53 44 105 49 116 15 31 69 182 96 265 13 41 32 98 41 125 8 28 19 64
23 80 4 17 18 66 30 110 47 171 86 375 127 670 26 190 26 890 0 1080 -61 439
-105 633 -234 1025 -19 58 -41 119 -49 137 -8 17 -14 35 -14 40 0 12 -113 270
-171 388 -37 77 -118 227 -149 275 -5 8 -21 35 -36 60 -119 199 -365 535 -502
685 -161 174 -416 414 -567 531 -189 146 -287 215 -443 309 -9 6 -35 22 -57
36 -40 26 -189 108 -255 140 -79 39 -211 99 -216 99 -3 0 -20 6 -37 14 -76 34
-130 56 -139 56 -6 0 -24 6 -41 14 -83 38 -431 141 -562 166 -297 59 -516 81
-845 87 -146 3 -267 2 -270 0z m-15 -516 c11 -18 -17 -23 -88 -15 l-72 9 55 6
c89 9 99 9 105 0z m663 -6 c8 -6 -118 -16 -128 -10 -25 15 5 24 63 18 34 -3
63 -7 65 -8z m-938 -36 c0 -5 -20 -9 -45 -9 -54 0 -60 17 -7 22 41 4 52 1 52
-13z m1160 1 c0 -5 -18 -10 -40 -10 -22 0 -40 5 -40 10 0 6 18 10 40 10 22 0
40 -4 40 -10z m175 -29 c17 -7 16 -9 -10 -13 -33 -7 -48 -2 -40 13 7 11 22 11
50 0z m-1582 -8 c-7 -2 -19 -2 -25 0 -7 3 -2 5 12 5 14 0 19 -2 13 -5z m-133
-33 c0 -5 -4 -10 -9 -10 -6 0 -13 5 -16 10 -3 6 1 10 9 10 9 0 16 -4 16 -10z
m-102 -31 c-2 -6 -7 -10 -11 -10 -4 1 -14 1 -23 1 -8 0 -12 5 -9 10 8 13 48
13 43 -1z m2077 1 c3 -5 -3 -10 -15 -10 -12 0 -18 5 -15 10 3 6 10 10 15 10 5
0 12 -4 15 -10z m-2177 -38 c2 -7 -7 -12 -22 -12 -30 0 -44 17 -19 23 24 6 36
3 41 -11z m-210 -77 c-3 -3 -13 -2 -22 1 -14 5 -15 9 -4 15 13 8 36 -6 26 -16z
m2677 15 c18 -7 18 -8 -7 -15 -29 -7 -52 1 -43 16 7 11 23 11 50 -1z m-2744
-35 c0 -13 -41 -19 -41 -7 0 11 20 22 33 18 5 -1 8 -6 8 -11z m2829 -5 c0 -5
-7 -10 -15 -10 -8 0 -15 5 -15 10 0 6 7 10 15 10 8 0 15 -4 15 -10z m-2933
-36 c-3 -3 -12 -4 -19 -1 -8 3 -5 6 6 6 11 1 17 -2 13 -5z m-67 -34 c0 -5 -4
-10 -9 -10 -6 0 -13 5 -16 10 -3 6 1 10 9 10 9 0 16 -4 16 -10z m-70 -30 c0
-5 -7 -10 -16 -10 -8 0 -12 5 -9 10 3 6 10 10 16 10 5 0 9 -4 9 -10z m-70 -40
c0 -5 -4 -10 -10 -10 -5 0 -10 5 -10 10 0 6 5 10 10 10 6 0 10 -4 10 -10z
m-70 -30 c0 -5 -5 -10 -11 -10 -5 0 -7 5 -4 10 3 6 8 10 11 10 2 0 4 -4 4 -10z
m3622 -42 c-12 -12 -35 -1 -27 12 3 5 13 6 21 3 10 -4 12 -9 6 -15z m-3898
-139 c-3 -5 -10 -7 -15 -3 -5 3 -7 10 -3 15 3 5 10 7 15 3 5 -3 7 -10 3 -15z
m-24 -24 c0 -8 -9 -15 -20 -15 -20 0 -26 11 -13 23 12 13 33 7 33 -8z m4190
-5 c0 -5 -4 -10 -10 -10 -5 0 -10 5 -10 10 0 6 5 10 10 10 6 0 10 -4 10 -10z
m-4270 -30 c0 -5 -5 -10 -11 -10 -5 0 -7 5 -4 10 3 6 8 10 11 10 2 0 4 -4 4
-10z m-64 -61 c3 -6 2 -15 -2 -19 -12 -12 -38 5 -30 19 9 14 23 14 32 0z
m4474 -9 c0 -5 -7 -10 -15 -10 -8 0 -15 5 -15 10 0 6 7 10 15 10 8 0 15 -4 15
-10z m-4575 -70 c-3 -5 -10 -10 -16 -10 -5 0 -9 5 -9 10 0 6 7 10 16 10 8 0
12 -4 9 -10z m-35 -36 c0 -17 -22 -14 -28 4 -2 7 3 12 12 12 9 0 16 -7 16 -16z
m4745 6 c3 -5 -1 -10 -10 -10 -9 0 -13 5 -10 10 3 6 8 10 10 10 2 0 7 -4 10
-10z m-4955 -176 c0 -8 -5 -12 -10 -9 -6 4 -8 11 -5 16 9 14 15 11 15 -7z
m-30 -34 c0 -5 -4 -10 -10 -10 -5 0 -10 5 -10 10 0 6 5 10 10 10 6 0 10 -4 10
-10z m-36 -41 c-3 -5 -10 -7 -15 -3 -5 3 -7 10 -3 15 3 5 10 7 15 3 5 -3 7
-10 3 -15z m-34 -29 c0 -5 -4 -10 -10 -10 -5 0 -10 5 -10 10 0 6 5 10 10 10 6
0 10 -4 10 -10z m-35 -30 c3 -5 -1 -10 -10 -10 -9 0 -13 5 -10 10 3 6 8 10 10
10 2 0 7 -4 10 -10z m-35 -40 c0 -5 -2 -10 -4 -10 -3 0 -8 5 -11 10 -3 6 -1
10 4 10 6 0 11 -4 11 -10z m-140 -178 c-7 -3 -19 -13 -28 -23 -28 -33 -33 -9
-5 26 24 30 29 32 37 18 6 -12 5 -18 -4 -21z m5780 8 c0 -5 -4 -10 -10 -10 -5
0 -10 5 -10 10 0 6 5 10 10 10 6 0 10 -4 10 -10z m-5846 -71 c-3 -5 -10 -7
-15 -3 -5 3 -7 10 -3 15 3 5 10 7 15 3 5 -3 7 -10 3 -15z m-104 -129 c0 -5 -5
-10 -11 -10 -5 0 -7 5 -4 10 3 6 8 10 11 10 2 0 4 -4 4 -10z m-74 -117 c-10
-10 -19 5 -10 18 6 11 8 11 12 0 2 -7 1 -15 -2 -18z m-67 -102 c-15 -5 -22 6
-14 19 6 9 10 9 16 -1 5 -8 4 -15 -2 -18z m-103 -168 c-10 -10 -19 5 -10 18 6
11 8 11 12 0 2 -7 1 -15 -2 -18z m-62 -119 c9 -22 8 -24 -9 -24 -8 0 -15 9
-15 20 0 24 15 27 24 4z m6736 -14 c0 -5 -4 -10 -10 -10 -5 0 -10 5 -10 10 0
6 5 10 10 10 6 0 10 -4 10 -10z m-6770 -61 c0 -10 -7 -19 -15 -19 -16 0 -19 9
-9 34 8 20 24 11 24 -15z m6840 -73 c0 -3 -4 -8 -10 -11 -5 -3 -10 -1 -10 4 0
6 5 11 10 11 6 0 10 -2 10 -4z m-6910 -66 c0 -19 -11 -26 -23 -14 -8 8 3 34
14 34 5 0 9 -9 9 -20z m6940 0 c0 -5 -5 -10 -11 -10 -5 0 -7 5 -4 10 3 6 8 10
11 10 2 0 4 -4 4 -10z m-6978 -82 c-13 -13 -24 5 -16 27 7 16 8 16 17 0 6 -11
6 -20 -1 -27z m-32 -58 c0 -5 -4 -10 -10 -10 -5 0 -10 5 -10 10 0 6 5 10 10
10 6 0 10 -4 10 -10z m-38 -112 c-13 -13 -24 5 -16 27 7 16 8 16 17 0 6 -11 6
-20 -1 -27z m-32 -102 c-17 -17 -29 6 -18 34 l10 25 9 -24 c6 -16 6 -28 -1
-35z m-35 -55 c3 -5 1 -12 -5 -16 -5 -3 -10 1 -10 9 0 18 6 21 15 7z m7282
-43 c-3 -8 -6 -5 -6 6 -1 11 2 17 5 13 3 -3 4 -12 1 -19z m-7311 -105 c-3 -7
-10 -13 -16 -13 -11 0 -13 30 -3 56 6 15 7 14 15 -6 5 -13 6 -30 4 -37z m-36
-114 c0 -37 -12 -51 -25 -29 -9 14 6 81 16 74 5 -3 9 -23 9 -45z m-43 -91 c-3
-8 -6 -5 -6 6 -1 11 2 17 5 13 3 -3 4 -12 1 -19z m7498 -57 c3 -5 1 -12 -5
-16 -5 -3 -10 1 -10 9 0 18 6 21 15 7z m-7525 -127 c0 -21 -4 -34 -11 -32 -6
2 -10 7 -10 11 1 4 1 18 1 32 0 14 5 25 10 25 6 0 10 -16 10 -36z m7560 -98
c-14 -14 -23 20 -15 52 l8 27 8 -35 c4 -19 4 -39 -1 -44z m-7591 -128 c1 -36
-3 -48 -14 -48 -17 0 -19 37 -8 105 6 36 7 38 14 15 4 -14 7 -46 8 -72z m-41
-265 c-4 -23 -6 -25 -12 -10 -5 9 -5 34 0 55 7 34 8 35 12 10 2 -16 2 -40 0
-55z m7698 -181 c-13 -12 -17 8 -10 40 l9 33 3 -33 c2 -19 1 -36 -2 -40z m4
-374 c0 -25 -3 -29 -10 -18 -13 20 -13 50 0 50 6 0 10 -15 10 -32z m-7701
-180 c0 -33 -2 -38 -9 -23 -12 28 -12 65 0 65 6 0 10 -19 9 -42z m40 -236 c-1
-20 -4 -48 -8 -62 -7 -21 -9 -15 -16 32 -4 31 -4 61 0 67 12 20 25 0 24 -37z
m7591 -164 c0 -25 -3 -29 -10 -18 -13 20 -13 50 0 50 6 0 10 -15 10 -32z
m-7560 -63 c0 -14 -4 -25 -10 -25 -5 0 -10 11 -10 25 0 14 5 25 10 25 6 0 10
-11 10 -25z m70 -274 c0 -17 -4 -33 -10 -36 -5 -3 -10 0 -10 7 0 7 -3 23 -6
36 -5 16 -2 22 10 22 11 0 16 -9 16 -29z m31 -124 c-1 -4 -1 -15 -1 -24 0 -15
-2 -16 -10 -3 -13 20 -13 43 1 38 6 -2 10 -7 10 -11z m70 -200 c-1 -4 -1 -14
-1 -23 0 -8 -4 -12 -10 -9 -13 8 -13 48 1 43 6 -2 10 -7 10 -11z m39 -106 c0
-6 -4 -13 -10 -16 -5 -3 -10 1 -10 9 0 9 5 16 10 16 6 0 10 -4 10 -9z m57
-183 c-3 -8 -6 -5 -6 6 -1 11 2 17 5 13 3 -3 4 -12 1 -19z m43 -63 c0 -8 -4
-15 -10 -15 -5 0 -10 7 -10 15 0 8 5 15 10 15 6 0 10 -7 10 -15z m70 -141 c0
-8 -4 -14 -9 -14 -11 0 -22 26 -14 34 9 9 23 -3 23 -20z m33 -50 c9 -9 -4 -35
-14 -28 -5 3 -9 12 -9 20 0 14 12 19 23 8z m67 -144 c0 -5 -5 -10 -11 -10 -5
0 -7 5 -4 10 3 6 8 10 11 10 2 0 4 -4 4 -10z m414 -591 c-3 -5 -10 -7 -15 -3
-5 3 -7 10 -3 15 3 5 10 7 15 3 5 -3 7 -10 3 -15z m650 -620 c-3 -5 -10 -7
-15 -3 -5 3 -7 10 -3 15 3 5 10 7 15 3 5 -3 7 -10 3 -15z m136 -99 c0 -5 -2
-10 -4 -10 -3 0 -8 5 -11 10 -3 6 -1 10 4 10 6 0 11 -4 11 -10z m345 -200 c3
-5 -1 -10 -10 -10 -9 0 -13 5 -10 10 3 6 8 10 10 10 2 0 7 -4 10 -10z m2755
-310 c0 -5 -4 -10 -10 -10 -5 0 -10 5 -10 10 0 6 5 10 10 10 6 0 10 -4 10 -10z
m-1527 -107 c-7 -2 -21 -2 -30 0 -10 3 -4 5 12 5 17 0 24 -2 18 -5z"/>
<path d="M2367 18662 c-9 -10 -30 -45 -48 -77 -17 -33 -52 -98 -76 -145 -25
-47 -54 -100 -65 -117 -33 -55 -22 -79 52 -120 104 -56 180 -97 263 -141 42
-23 112 -61 155 -84 42 -22 100 -53 127 -68 28 -15 86 -46 130 -70 147 -79
190 -102 240 -130 113 -61 246 -133 368 -198 42 -23 112 -61 155 -84 42 -22
106 -57 142 -76 193 -104 183 -103 230 -21 37 64 45 78 71 119 112 172 130
204 127 223 -2 11 -16 28 -33 37 -58 32 -211 114 -390 210 -44 24 -102 55
-130 70 -27 15 -86 46 -130 70 -44 24 -102 55 -130 70 -27 15 -90 49 -140 75
-49 26 -137 74 -195 105 -58 31 -145 79 -195 105 -49 26 -112 60 -140 75 -312
168 -353 190 -363 190 -5 0 -16 -8 -25 -18z"/>
<path d="M23150 18667 c-27 -14 -171 -92 -255 -137 -27 -15 -86 -46 -130 -70
-78 -42 -107 -58 -245 -132 -36 -19 -105 -57 -155 -83 -49 -26 -166 -89 -260
-140 -93 -51 -210 -114 -260 -140 -101 -54 -207 -111 -310 -167 -38 -21 -98
-52 -132 -70 -75 -38 -82 -57 -44 -112 47 -68 154 -237 188 -299 7 -12 22 -30
33 -39 20 -16 24 -16 88 19 37 20 87 47 112 61 25 13 63 34 85 46 22 12 81 44
130 70 50 27 142 77 205 111 63 34 156 84 205 110 120 64 231 124 280 151 22
12 69 38 105 56 36 19 119 64 185 100 148 80 278 150 370 199 48 26 71 44 73
58 2 12 -17 59 -41 104 -24 45 -59 109 -77 142 -18 33 -42 78 -53 100 -38 76
-53 85 -97 62z"/>
<path d="M643 13038 c-23 -11 -23 -13 -23 -238 l0 -227 25 -11 c32 -15 2092
-17 2114 -3 12 8 15 52 15 241 l1 232 -23 9 c-35 14 -2082 10 -2109 -3z"/>
<path d="M22818 13043 c-17 -4 -18 -24 -18 -244 l0 -239 23 -5 c12 -3 495 -4
1072 -3 l1050 3 3 241 2 242 -22 6 c-26 7 -2084 6 -2110 -1z"/>
<path d="M3945 8321 c-6 -5 -50 -30 -100 -56 -49 -26 -112 -60 -140 -75 -27
-15 -90 -49 -140 -75 -49 -26 -166 -89 -260 -140 -93 -51 -215 -116 -270 -145
-55 -30 -118 -64 -140 -77 -22 -12 -47 -26 -55 -30 -8 -4 -62 -32 -120 -63
-58 -32 -143 -77 -190 -102 -47 -25 -125 -68 -175 -94 -49 -27 -112 -60 -138
-74 -82 -42 -82 -39 15 -220 110 -203 136 -245 152 -248 19 -4 24 -1 301 148
28 15 91 49 140 75 228 122 255 136 515 277 96 52 216 117 265 143 50 26 113
60 140 75 28 15 91 49 140 75 50 27 122 66 160 87 39 21 98 52 133 70 48 25
62 37 62 54 0 12 -31 69 -68 126 -38 57 -79 121 -92 143 -36 62 -74 119 -85
127 -14 10 -39 10 -50 -1z"/>
<path d="M21575 8322 c-6 -4 -32 -43 -59 -87 -50 -84 -86 -142 -147 -238 -45
-71 -42 -86 24 -122 27 -14 72 -38 100 -54 29 -15 93 -50 142 -76 50 -27 142
-76 205 -110 126 -69 184 -100 305 -165 44 -24 103 -55 130 -70 28 -15 86 -46
130 -70 44 -24 105 -56 135 -73 30 -16 84 -45 120 -64 36 -20 92 -50 125 -68
33 -18 85 -46 115 -62 30 -17 91 -49 135 -73 150 -82 147 -81 168 -62 11 9 27
33 36 52 10 19 38 73 63 120 118 217 123 230 113 246 -6 9 -37 31 -70 49 -33
17 -96 51 -140 75 -44 24 -102 55 -130 70 -27 15 -86 46 -130 70 -44 23 -102
55 -130 70 -27 15 -86 46 -130 70 -146 79 -209 113 -260 140 -58 32 -128 70
-237 128 -43 23 -113 61 -155 84 -43 22 -100 53 -128 68 -299 161 -297 160
-309 160 -6 0 -16 -4 -21 -8z"/>
<path d="M17865 4921 c-33 -15 -94 -44 -135 -64 -41 -19 -111 -51 -155 -71
-44 -19 -81 -42 -83 -50 -3 -14 14 -44 103 -184 17 -26 76 -121 130 -210 55
-89 123 -199 152 -245 29 -45 75 -120 103 -167 28 -47 76 -123 106 -170 29
-47 58 -94 64 -105 6 -11 35 -58 64 -105 30 -47 78 -123 106 -170 28 -47 74
-122 103 -167 29 -46 89 -143 135 -218 45 -74 87 -137 93 -141 10 -6 41 11
279 156 110 67 140 90 140 107 0 12 -5 25 -10 28 -6 4 -31 41 -56 83 -25 42
-69 115 -99 162 -45 72 -145 234 -180 292 -23 38 -110 179 -166 268 -33 52
-80 129 -105 170 -25 41 -69 113 -99 160 -29 47 -100 161 -157 253 -56 93
-110 179 -118 192 -8 13 -36 59 -62 102 -26 44 -58 89 -71 101 l-23 22 -59
-29z"/>
<path d="M7590 4873 c-23 -38 -59 -95 -80 -128 -22 -33 -45 -70 -52 -82 -16
-29 -198 -324 -285 -463 -36 -58 -85 -136 -108 -175 -80 -130 -140 -227 -155
-250 -8 -14 -62 -101 -120 -195 -58 -94 -128 -207 -157 -253 -104 -166 -123
-199 -123 -217 0 -12 19 -30 53 -50 66 -40 239 -147 295 -183 24 -16 50 -27
59 -25 14 3 50 58 201 303 27 44 73 118 102 165 29 47 60 97 69 111 70 115 88
144 101 165 8 13 62 100 120 194 58 94 131 212 163 263 31 50 79 127 105 170
26 44 54 89 62 102 8 13 30 47 48 76 18 30 69 112 112 183 44 71 80 137 80
147 0 14 -23 30 -85 59 -47 22 -87 40 -89 40 -3 0 -57 25 -121 55 -63 30 -124
55 -135 55 -13 0 -32 -22 -60 -67z"/>
<path d="M12764 4134 c-6 -3 -58 -10 -115 -17 l-104 -12 -3 -1314 c-1 -963 1
-1317 9 -1327 9 -11 59 -14 235 -14 189 0 225 2 238 16 14 14 16 147 16 1313
0 1022 -3 1301 -12 1313 -9 11 -42 20 -105 27 -50 6 -104 13 -120 16 -15 2
-33 2 -39 -1z"/>
</g>
</svg>
